<svg xmlns="http://www.w3.org/2000/svg" xmlns:xlink="http://www.w3.org/1999/xlink" width="2000" zoomAndPan="magnify" viewBox="0 0 1500 1499.999933" height="2000" preserveAspectRatio="xMidYMid meet" version="1.0"><defs><g/></defs><rect x="-150" width="1800" fill="#ffffff" y="-149.999993" height="1799.99992" fill-opacity="1"/><rect x="-150" width="1800" fill="#7e1e80" y="-149.999993" height="1799.99992" fill-opacity="1"/><g fill="#f2ebfd" fill-opacity="1"><g transform="translate(137.273466, 768.10921)"><g><path d="M 109.796875 -174.125 C 148.785156 -174.125 168.28125 -150.734375 168.28125 -103.953125 L 168.28125 -15.59375 C 168.28125 -11.257812 166.816406 -7.578125 163.890625 -4.546875 C 160.960938 -1.515625 157.226562 0 152.6875 0 C 148.351562 0 144.722656 -1.515625 141.796875 -4.546875 C 138.878906 -7.578125 137.421875 -11.257812 137.421875 -15.59375 L 137.421875 -103.625 C 137.421875 -116.40625 134.492188 -126.582031 128.640625 -134.15625 C 122.796875 -141.738281 113.269531 -145.53125 100.0625 -145.53125 C 91.394531 -145.53125 83.539062 -143.632812 76.5 -139.84375 C 69.46875 -136.0625 63.945312 -130.972656 59.9375 -124.578125 C 55.925781 -118.191406 53.921875 -111.207031 53.921875 -103.625 L 53.921875 -15.59375 C 53.921875 -11.257812 52.457031 -7.578125 49.53125 -4.546875 C 46.613281 -1.515625 42.878906 0 38.328125 0 C 33.785156 0 30.101562 -1.457031 27.28125 -4.375 C 24.46875 -7.300781 23.0625 -11.039062 23.0625 -15.59375 L 23.0625 -154.640625 C 23.0625 -158.960938 24.523438 -162.640625 27.453125 -165.671875 C 30.378906 -168.703125 34.003906 -170.21875 38.328125 -170.21875 C 42.878906 -170.21875 46.613281 -168.703125 49.53125 -165.671875 C 52.457031 -162.640625 53.921875 -158.960938 53.921875 -154.640625 L 53.921875 -143.265625 C 59.554688 -151.921875 67.40625 -159.226562 77.46875 -165.1875 C 87.539062 -171.144531 98.316406 -174.125 109.796875 -174.125 Z M 109.796875 -174.125 "/></g></g></g><g fill="#f2ebfd" fill-opacity="1"><g transform="translate(328.61714, 768.10921)"><g><path d="M 172.5 -91.609375 C 172.28125 -87.710938 170.65625 -84.410156 167.625 -81.703125 C 164.59375 -78.992188 161.019531 -77.640625 156.90625 -77.640625 L 42.5625 -77.640625 C 44.070312 -61.828125 50.078125 -49.15625 60.578125 -39.625 C 71.085938 -30.101562 83.921875 -25.34375 99.078125 -25.34375 C 109.472656 -25.34375 117.921875 -26.859375 124.421875 -29.890625 C 130.921875 -32.921875 136.660156 -36.816406 141.640625 -41.578125 C 144.890625 -43.523438 148.03125 -44.5 151.0625 -44.5 C 154.738281 -44.5 157.820312 -43.195312 160.3125 -40.59375 C 162.800781 -38 164.046875 -34.972656 164.046875 -31.515625 C 164.046875 -26.960938 161.882812 -22.847656 157.5625 -19.171875 C 151.28125 -12.890625 142.941406 -7.582031 132.546875 -3.25 C 122.148438 1.082031 111.535156 3.25 100.703125 3.25 C 83.160156 3.25 67.726562 -0.429688 54.40625 -7.796875 C 41.09375 -15.160156 30.804688 -25.445312 23.546875 -38.65625 C 16.296875 -51.863281 12.671875 -66.804688 12.671875 -83.484375 C 12.671875 -101.679688 16.40625 -117.65625 23.875 -131.40625 C 31.34375 -145.15625 41.195312 -155.710938 53.4375 -163.078125 C 65.675781 -170.441406 78.832031 -174.125 92.90625 -174.125 C 106.769531 -174.125 119.765625 -170.550781 131.890625 -163.40625 C 144.015625 -156.257812 153.757812 -146.40625 161.125 -133.84375 C 168.488281 -121.28125 172.28125 -107.203125 172.5 -91.609375 Z M 92.90625 -145.53125 C 80.78125 -145.53125 70.273438 -142.117188 61.390625 -135.296875 C 52.515625 -128.484375 46.671875 -117.925781 43.859375 -103.625 L 139.6875 -103.625 L 139.6875 -106.234375 C 138.601562 -117.710938 133.457031 -127.128906 124.25 -134.484375 C 115.050781 -141.847656 104.601562 -145.53125 92.90625 -145.53125 Z M 92.90625 -145.53125 "/></g></g></g><g fill="#f2ebfd" fill-opacity="1"><g transform="translate(513.788397, 768.10921)"><g><path d="M 108.5 -173.15625 C 123.226562 -173.15625 136.546875 -169.414062 148.453125 -161.9375 C 160.367188 -154.46875 169.738281 -144.019531 176.5625 -130.59375 C 183.382812 -117.164062 186.796875 -102.003906 186.796875 -85.109375 C 186.796875 -68.222656 183.382812 -53.117188 176.5625 -39.796875 C 169.738281 -26.472656 160.367188 -16.019531 148.453125 -8.4375 C 136.546875 -0.863281 123.445312 2.921875 109.15625 2.921875 C 97.894531 2.921875 87.390625 0.429688 77.640625 -4.546875 C 67.890625 -9.523438 59.984375 -15.585938 53.921875 -22.734375 L 53.921875 49.375 C 53.921875 53.707031 52.457031 57.390625 49.53125 60.421875 C 46.613281 63.453125 42.878906 64.96875 38.328125 64.96875 C 34.003906 64.96875 30.378906 63.503906 27.453125 60.578125 C 24.523438 57.660156 23.0625 53.925781 23.0625 49.375 L 23.0625 -154.953125 C 23.0625 -159.503906 24.46875 -163.296875 27.28125 -166.328125 C 30.101562 -169.359375 33.785156 -170.875 38.328125 -170.875 C 42.878906 -170.875 46.613281 -169.359375 49.53125 -166.328125 C 52.457031 -163.296875 53.921875 -159.503906 53.921875 -154.953125 L 53.921875 -145.53125 C 59.117188 -153.113281 66.695312 -159.613281 76.65625 -165.03125 C 86.625 -170.445312 97.238281 -173.15625 108.5 -173.15625 Z M 104.921875 -25.65625 C 114.890625 -25.65625 123.878906 -28.253906 131.890625 -33.453125 C 139.898438 -38.648438 146.125 -45.742188 150.5625 -54.734375 C 155.007812 -63.722656 157.234375 -73.847656 157.234375 -85.109375 C 157.234375 -96.367188 155.007812 -106.492188 150.5625 -115.484375 C 146.125 -124.472656 139.898438 -131.566406 131.890625 -136.765625 C 123.878906 -141.960938 114.890625 -144.5625 104.921875 -144.5625 C 94.742188 -144.5625 85.648438 -142.015625 77.640625 -136.921875 C 69.628906 -131.835938 63.398438 -124.742188 58.953125 -115.640625 C 54.515625 -106.546875 52.296875 -96.367188 52.296875 -85.109375 C 52.296875 -73.847656 54.515625 -63.671875 58.953125 -54.578125 C 63.398438 -45.484375 69.628906 -38.390625 77.640625 -33.296875 C 85.648438 -28.203125 94.742188 -25.65625 104.921875 -25.65625 Z M 104.921875 -25.65625 "/></g></g></g><g fill="#f2ebfd" fill-opacity="1"><g transform="translate(713.253587, 768.10921)"><g><path d="M 108.5 -173.15625 C 123.226562 -173.15625 136.546875 -169.414062 148.453125 -161.9375 C 160.367188 -154.46875 169.738281 -144.019531 176.5625 -130.59375 C 183.382812 -117.164062 186.796875 -102.003906 186.796875 -85.109375 C 186.796875 -68.222656 183.382812 -53.117188 176.5625 -39.796875 C 169.738281 -26.472656 160.367188 -16.019531 148.453125 -8.4375 C 136.546875 -0.863281 123.445312 2.921875 109.15625 2.921875 C 97.894531 2.921875 87.390625 0.429688 77.640625 -4.546875 C 67.890625 -9.523438 59.984375 -15.585938 53.921875 -22.734375 L 53.921875 49.375 C 53.921875 53.707031 52.457031 57.390625 49.53125 60.421875 C 46.613281 63.453125 42.878906 64.96875 38.328125 64.96875 C 34.003906 64.96875 30.378906 63.503906 27.453125 60.578125 C 24.523438 57.660156 23.0625 53.925781 23.0625 49.375 L 23.0625 -154.953125 C 23.0625 -159.503906 24.46875 -163.296875 27.28125 -166.328125 C 30.101562 -169.359375 33.785156 -170.875 38.328125 -170.875 C 42.878906 -170.875 46.613281 -169.359375 49.53125 -166.328125 C 52.457031 -163.296875 53.921875 -159.503906 53.921875 -154.953125 L 53.921875 -145.53125 C 59.117188 -153.113281 66.695312 -159.613281 76.65625 -165.03125 C 86.625 -170.445312 97.238281 -173.15625 108.5 -173.15625 Z M 104.921875 -25.65625 C 114.890625 -25.65625 123.878906 -28.253906 131.890625 -33.453125 C 139.898438 -38.648438 146.125 -45.742188 150.5625 -54.734375 C 155.007812 -63.722656 157.234375 -73.847656 157.234375 -85.109375 C 157.234375 -96.367188 155.007812 -106.492188 150.5625 -115.484375 C 146.125 -124.472656 139.898438 -131.566406 131.890625 -136.765625 C 123.878906 -141.960938 114.890625 -144.5625 104.921875 -144.5625 C 94.742188 -144.5625 85.648438 -142.015625 77.640625 -136.921875 C 69.628906 -131.835938 63.398438 -124.742188 58.953125 -115.640625 C 54.515625 -106.546875 52.296875 -96.367188 52.296875 -85.109375 C 52.296875 -73.847656 54.515625 -63.671875 58.953125 -54.578125 C 63.398438 -45.484375 69.628906 -38.390625 77.640625 -33.296875 C 85.648438 -28.203125 94.742188 -25.65625 104.921875 -25.65625 Z M 104.921875 -25.65625 "/></g></g></g><g fill="#f2ebfd" fill-opacity="1"><g transform="translate(912.718822, 768.10921)"><g><path d="M 69.1875 -140.015625 L 69.1875 -43.203125 C 69.1875 -32.378906 74.0625 -26.96875 83.8125 -26.96875 C 85.332031 -26.96875 87.390625 -27.34375 89.984375 -28.09375 C 92.585938 -28.851562 94.644531 -29.234375 96.15625 -29.234375 C 98.96875 -29.234375 101.347656 -28.039062 103.296875 -25.65625 C 105.253906 -23.28125 106.234375 -20.25 106.234375 -16.5625 C 106.234375 -12.019531 103.632812 -8.125 98.4375 -4.875 C 93.238281 -1.625 87.390625 0 80.890625 0 C 73.742188 0 67.191406 -0.753906 61.234375 -2.265625 C 55.273438 -3.785156 49.96875 -7.628906 45.3125 -13.796875 C 40.65625 -19.972656 38.328125 -29.34375 38.328125 -41.90625 L 38.328125 -140.015625 L 19.484375 -140.015625 C 15.367188 -140.015625 11.957031 -141.367188 9.25 -144.078125 C 6.550781 -146.785156 5.203125 -150.195312 5.203125 -154.3125 C 5.203125 -158.425781 6.550781 -161.78125 9.25 -164.375 C 11.957031 -166.976562 15.367188 -168.28125 19.484375 -168.28125 L 38.328125 -168.28125 L 38.328125 -195.5625 C 38.328125 -199.894531 39.789062 -203.578125 42.71875 -206.609375 C 45.644531 -209.640625 49.378906 -211.15625 53.921875 -211.15625 C 58.253906 -211.15625 61.878906 -209.640625 64.796875 -206.609375 C 67.722656 -203.578125 69.1875 -199.894531 69.1875 -195.5625 L 69.1875 -168.28125 L 96.15625 -168.28125 C 100.269531 -168.28125 103.679688 -166.925781 106.390625 -164.21875 C 109.097656 -161.507812 110.453125 -158.097656 110.453125 -153.984375 C 110.453125 -149.867188 109.097656 -146.507812 106.390625 -143.90625 C 103.679688 -141.3125 100.269531 -140.015625 96.15625 -140.015625 Z M 69.1875 -140.015625 "/></g></g></g><g fill="#f2ebfd" fill-opacity="1"><g transform="translate(1036.166322, 768.10921)"><g><path d="M 184.1875 -85.109375 C 184.1875 -68.222656 180.394531 -53.0625 172.8125 -39.625 C 165.238281 -26.195312 154.898438 -15.691406 141.796875 -8.109375 C 128.691406 -0.535156 114.238281 3.25 98.4375 3.25 C 82.625 3.25 68.164062 -0.535156 55.0625 -8.109375 C 41.957031 -15.691406 31.613281 -26.195312 24.03125 -39.625 C 16.457031 -53.0625 12.671875 -68.222656 12.671875 -85.109375 C 12.671875 -102.003906 16.457031 -117.273438 24.03125 -130.921875 C 31.613281 -144.566406 41.957031 -155.175781 55.0625 -162.75 C 68.164062 -170.332031 82.625 -174.125 98.4375 -174.125 C 114.238281 -174.125 128.691406 -170.332031 141.796875 -162.75 C 154.898438 -155.175781 165.238281 -144.566406 172.8125 -130.921875 C 180.394531 -117.273438 184.1875 -102.003906 184.1875 -85.109375 Z M 153.328125 -85.109375 C 153.328125 -96.804688 150.890625 -107.253906 146.015625 -116.453125 C 141.148438 -125.660156 134.546875 -132.804688 126.203125 -137.890625 C 117.867188 -142.984375 108.613281 -145.53125 98.4375 -145.53125 C 88.25 -145.53125 78.988281 -142.984375 70.65625 -137.890625 C 62.320312 -132.804688 55.71875 -125.660156 50.84375 -116.453125 C 45.96875 -107.253906 43.53125 -96.804688 43.53125 -85.109375 C 43.53125 -73.628906 45.96875 -63.34375 50.84375 -54.25 C 55.71875 -45.15625 62.320312 -38.0625 70.65625 -32.96875 C 78.988281 -27.882812 88.25 -25.34375 98.4375 -25.34375 C 108.613281 -25.34375 117.867188 -27.882812 126.203125 -32.96875 C 134.546875 -38.0625 141.148438 -45.15625 146.015625 -54.25 C 150.890625 -63.34375 153.328125 -73.628906 153.328125 -85.109375 Z M 153.328125 -85.109375 "/></g></g></g><g fill="#f2ebfd" fill-opacity="1"><g transform="translate(1233.032702, 768.10921)"><g><path d="M 107.859375 -174.125 C 113.484375 -174.125 118.351562 -172.660156 122.46875 -169.734375 C 126.582031 -166.816406 128.640625 -163.191406 128.640625 -158.859375 C 128.640625 -153.660156 127.285156 -149.707031 124.578125 -147 C 121.867188 -144.289062 118.566406 -142.9375 114.671875 -142.9375 C 112.722656 -142.9375 109.800781 -143.585938 105.90625 -144.890625 C 101.351562 -146.398438 97.78125 -147.15625 95.1875 -147.15625 C 88.46875 -147.15625 81.914062 -144.828125 75.53125 -140.171875 C 69.144531 -135.515625 63.945312 -129.125 59.9375 -121 C 55.925781 -112.882812 53.921875 -103.847656 53.921875 -93.890625 L 53.921875 -15.59375 C 53.921875 -11.257812 52.457031 -7.578125 49.53125 -4.546875 C 46.613281 -1.515625 42.878906 0 38.328125 0 C 33.785156 0 30.101562 -1.457031 27.28125 -4.375 C 24.46875 -7.300781 23.0625 -11.039062 23.0625 -15.59375 L 23.0625 -154.640625 C 23.0625 -158.960938 24.523438 -162.640625 27.453125 -165.671875 C 30.378906 -168.703125 34.003906 -170.21875 38.328125 -170.21875 C 42.878906 -170.21875 46.613281 -168.703125 49.53125 -165.671875 C 52.457031 -162.640625 53.921875 -158.960938 53.921875 -154.640625 L 53.921875 -138.0625 C 58.691406 -148.675781 65.835938 -157.285156 75.359375 -163.890625 C 84.890625 -170.492188 95.722656 -173.90625 107.859375 -174.125 Z M 107.859375 -174.125 "/></g></g></g><g fill="#f2ebfd" fill-opacity="1"><g transform="translate(550.764059, 975.14656)"><g><path d="M 16.96875 -22.75 L 16.96875 -8.578125 L 41.703125 -8.578125 L 41.703125 0 L 6.734375 0 L 6.734375 -51.796875 L 41.140625 -51.796875 L 41.140625 -43.21875 L 16.96875 -43.21875 L 16.96875 -31.109375 L 38.09375 -31.109375 L 38.09375 -22.75 Z M 16.96875 -22.75 "/></g></g></g><g fill="#f2ebfd" fill-opacity="1"><g transform="translate(629.406557, 975.14656)"><g><path d="M 11.015625 0 L 0.671875 0 L 11.828125 -20.265625 L 1.28125 -39.078125 L 11.765625 -39.078125 L 18.53125 -26.21875 L 19.34375 -26.21875 L 26.140625 -39.078125 L 36.3125 -39.078125 L 26.078125 -20.265625 L 36.921875 0 L 26.46875 0 L 19.09375 -14.28125 L 18.28125 -14.28125 Z M 11.015625 0 "/></g></g></g><g fill="#f2ebfd" fill-opacity="1"><g transform="translate(701.104599, 975.14656)"><g><path d="M 5.640625 15.84375 L 5.640625 -39.078125 L 15.453125 -39.078125 L 15.453125 -33.984375 L 16.1875 -33.84375 C 17.34375 -35.820312 18.890625 -37.3125 20.828125 -38.3125 C 22.765625 -39.320312 25.035156 -39.828125 27.640625 -39.828125 C 30.773438 -39.828125 33.519531 -39.082031 35.875 -37.59375 C 38.226562 -36.101562 40.054688 -33.835938 41.359375 -30.796875 C 42.671875 -27.765625 43.328125 -24.003906 43.328125 -19.515625 C 43.328125 -15.054688 42.632812 -11.3125 41.25 -8.28125 C 39.875 -5.257812 37.957031 -3 35.5 -1.5 C 33.039062 0 30.207031 0.75 27 0.75 C 24.5625 0.75 22.457031 0.34375 20.6875 -0.46875 C 18.914062 -1.289062 17.414062 -2.5625 16.1875 -4.28125 L 15.453125 -4.140625 L 15.453125 15.84375 Z M 24.265625 -7.578125 C 27.191406 -7.578125 29.410156 -8.535156 30.921875 -10.453125 C 32.441406 -12.367188 33.203125 -15.390625 33.203125 -19.515625 C 33.203125 -23.648438 32.441406 -26.679688 30.921875 -28.609375 C 29.410156 -30.535156 27.191406 -31.5 24.265625 -31.5 C 21.523438 -31.5 19.351562 -30.503906 17.75 -28.515625 C 16.144531 -26.535156 15.34375 -23.535156 15.34375 -19.515625 C 15.34375 -15.523438 16.144531 -12.535156 17.75 -10.546875 C 19.351562 -8.566406 21.523438 -7.578125 24.265625 -7.578125 Z M 24.265625 -7.578125 "/></g></g></g><g fill="#f2ebfd" fill-opacity="1"><g transform="translate(782.014664, 975.14656)"><g><path d="M 38.625 -17.328125 L 13.5 -17.328125 C 13.78125 -13.921875 14.75 -11.441406 16.40625 -9.890625 C 18.0625 -8.347656 20.316406 -7.578125 23.171875 -7.578125 C 25.410156 -7.578125 27.226562 -7.992188 28.625 -8.828125 C 30.019531 -9.671875 31.144531 -10.945312 32 -12.65625 L 32.734375 -12.65625 L 39.25 -8.46875 C 37.976562 -5.726562 36.054688 -3.503906 33.484375 -1.796875 C 30.910156 -0.0976562 27.472656 0.75 23.171875 0.75 C 19.128906 0.75 15.640625 -0.015625 12.703125 -1.546875 C 9.765625 -3.085938 7.492188 -5.375 5.890625 -8.40625 C 4.296875 -11.445312 3.5 -15.148438 3.5 -19.515625 C 3.5 -23.960938 4.335938 -27.707031 6.015625 -30.75 C 7.691406 -33.800781 9.957031 -36.078125 12.8125 -37.578125 C 15.675781 -39.078125 18.894531 -39.828125 22.46875 -39.828125 C 27.988281 -39.828125 32.21875 -38.359375 35.15625 -35.421875 C 38.101562 -32.492188 39.578125 -28.195312 39.578125 -22.53125 C 39.578125 -20.476562 39.503906 -18.882812 39.359375 -17.75 Z M 30.1875 -23.671875 C 30.09375 -26.640625 29.398438 -28.800781 28.109375 -30.15625 C 26.828125 -31.519531 24.945312 -32.203125 22.46875 -32.203125 C 17.5 -32.203125 14.582031 -29.359375 13.71875 -23.671875 Z M 30.1875 -23.671875 "/></g></g></g><g fill="#f2ebfd" fill-opacity="1"><g transform="translate(858.602182, 975.14656)"><g><path d="M 5.640625 0 L 5.640625 -39.078125 L 15.171875 -39.078125 L 15.171875 -33.265625 L 15.90625 -33.125 C 16.851562 -35.300781 18.09375 -36.894531 19.625 -37.90625 C 21.164062 -38.925781 23.035156 -39.4375 25.234375 -39.4375 C 27.453125 -39.4375 29.140625 -39.054688 30.296875 -38.296875 L 28.625 -29.828125 L 27.890625 -29.6875 C 27.242188 -29.945312 26.625 -30.132812 26.03125 -30.25 C 25.445312 -30.375 24.726562 -30.4375 23.875 -30.4375 C 21.132812 -30.4375 19.046875 -29.472656 17.609375 -27.546875 C 16.171875 -25.617188 15.453125 -22.53125 15.453125 -18.28125 L 15.453125 0 Z M 5.640625 0 "/></g></g></g><g fill="#f2ebfd" fill-opacity="1"><g transform="translate(923.355777, 975.14656)"><g><path d="M 26.96875 -9.3125 L 29.515625 -2.0625 C 28.453125 -1.1875 27.113281 -0.5 25.5 0 C 23.894531 0.5 22.078125 0.75 20.046875 0.75 C 15.828125 0.75 12.617188 -0.398438 10.421875 -2.703125 C 8.222656 -5.015625 7.125 -8.363281 7.125 -12.75 L 7.125 -31.328125 L 1.171875 -31.328125 L 1.171875 -39.109375 L 7.125 -39.109375 L 7.125 -46.734375 L 16.9375 -48.328125 L 16.9375 -39.109375 L 28.03125 -39.109375 L 28.03125 -31.328125 L 16.9375 -31.328125 L 16.9375 -13.46875 C 16.9375 -11.53125 17.335938 -10.117188 18.140625 -9.234375 C 18.941406 -8.347656 20.109375 -7.90625 21.640625 -7.90625 C 23.390625 -7.90625 24.914062 -8.375 26.21875 -9.3125 Z M 26.96875 -9.3125 "/></g></g></g></svg>