<svg width="254" height="71" viewBox="0 0 254 71" fill="none" xmlns="http://www.w3.org/2000/svg">
<path d="M10.55 67.49C7.23667 67.49 4.67 66.58 2.85 64.76C1.07667 62.9867 0.19 60.6067 0.19 57.62C0.19 55.1 0.96 52.9067 2.5 51.04C4.04 49.1733 6.11667 48.24 8.73 48.24C10.7367 48.24 12.37 48.5433 13.63 49.15C14.9367 49.71 15.59 50.97 15.59 52.93C15.59 53.77 15.45 54.7033 15.17 55.73C14.33 55.03 13.6067 54.54 13 54.26C12.3933 54.0267 11.7167 53.91 10.97 53.91C9.43 53.91 8.21667 54.4233 7.33 55.45C6.49 56.4767 6.07 57.69 6.07 59.09C6.07 60.7233 6.56 61.9367 7.54 62.73C8.52 63.57 9.61667 63.99 10.83 63.99C11.95 63.99 12.8833 63.7567 13.63 63.29C14.4233 62.87 15.1233 62.03 15.73 60.77C16.3367 59.5567 16.92 57.76 17.48 55.38L28.47 5.4C25.3433 6.66 22.9167 8.59666 21.19 11.21C19.4633 13.8233 18.6 16.9967 18.6 20.73C18.6 22.4567 18.7633 23.67 19.09 24.37C19.4167 25.0233 19.58 25.3967 19.58 25.49C17.06 25.49 15.17 24.9767 13.91 23.95C12.6967 22.8767 12.09 21.1267 12.09 18.7C12.09 15.7133 13.3033 12.82 15.73 10.02C18.2033 7.17333 21.3533 4.88667 25.18 3.16C29.0067 1.38666 32.8333 0.499996 36.66 0.499996H39.46L28.96 50.2C27.7467 55.94 25.74 60.2567 22.94 63.15C20.14 66.0433 16.01 67.49 10.55 67.49ZM47.4493 70.5C45.2093 70.5 43.3426 69.9167 41.8493 68.75C40.356 67.5833 39.6093 65.9033 39.6093 63.71C39.6093 61.05 40.6826 58.9033 42.8293 57.27C44.976 55.6833 47.706 54.3533 51.0193 53.28L51.8593 49.5C50.506 50.9933 49.1293 52.02 47.7293 52.58C46.3293 53.14 44.906 53.42 43.4593 53.42C41.2193 53.42 39.3993 52.72 37.9993 51.32C36.646 49.92 35.9693 47.82 35.9693 45.02C35.9693 43.8533 36.156 42.3367 36.5293 40.47L41.2893 18H51.3693L46.3293 41.8C46.1893 42.36 46.1193 42.9433 46.1193 43.55C46.1193 45.6033 46.8193 46.63 48.2193 46.63C49.4326 46.63 50.506 46.1167 51.4393 45.09C52.3726 44.0167 53.1193 42.6167 53.6793 40.89L58.5793 18H68.6593L61.7293 50.48C63.9693 49.7333 65.766 48.6133 67.1193 47.12C68.4726 45.6267 69.616 43.41 70.5493 40.47H73.4893C72.2293 44.6233 70.526 47.68 68.3793 49.64C66.2326 51.5533 63.806 52.86 61.0993 53.56L60.0493 58.6C59.116 63.1267 57.506 66.23 55.2193 67.91C52.9326 69.6367 50.3426 70.5 47.4493 70.5ZM45.8393 65.04C46.6326 65.04 47.4026 64.5033 48.1493 63.43C48.896 62.3567 49.4793 60.8167 49.8993 58.81L50.3193 56.78C45.746 58.46 43.4593 60.4433 43.4593 62.73C43.4593 63.3367 43.6693 63.8733 44.0893 64.34C44.5093 64.8067 45.0926 65.04 45.8393 65.04ZM80.7923 53.28C77.3389 53.28 74.6089 52.3933 72.6023 50.62C70.5956 48.8467 69.5923 46.0467 69.5923 42.22C69.5923 39.0467 70.2456 35.5233 71.5523 31.65C72.8589 27.7767 74.9589 24.44 77.8523 21.64C80.7456 18.7933 84.3856 17.37 88.7723 17.37C94.7456 17.37 97.7323 21.1033 97.7323 28.57V28.64C97.8723 28.6867 98.1289 28.71 98.5023 28.71C100.042 28.71 101.816 28.3133 103.822 27.52C105.829 26.68 107.649 25.6767 109.282 24.51L109.912 26.4C108.559 27.8467 106.786 29.0833 104.592 30.11C102.446 31.09 100.089 31.79 97.5223 32.21C97.1489 36.4567 96.1923 40.1667 94.6523 43.34C93.1123 46.5133 91.1289 48.9633 88.7023 50.69C86.2756 52.4167 83.6389 53.28 80.7923 53.28ZM83.5923 46.98C84.7123 46.98 85.8323 46.35 86.9523 45.09C88.0723 43.7833 89.0523 42.0333 89.8923 39.84C90.7323 37.6 91.3389 35.1267 91.7123 32.42C90.4523 32.14 89.8223 31.16 89.8223 29.48C89.8223 27.5667 90.5456 26.3067 91.9923 25.7C91.8989 24.16 91.6656 23.11 91.2923 22.55C90.9189 21.9433 90.2656 21.64 89.3323 21.64C87.7923 21.64 86.2989 22.76 84.8523 25C83.4056 27.24 82.2389 29.9233 81.3523 33.05C80.4656 36.1767 80.0223 38.93 80.0223 41.31C80.0223 43.55 80.2789 45.0667 80.7923 45.86C81.3056 46.6067 82.2389 46.98 83.5923 46.98ZM108.264 53.42C106.024 53.42 104.204 52.72 102.804 51.32C101.451 49.92 100.774 47.82 100.774 45.02C100.774 43.8533 100.961 42.3367 101.334 40.47L105.534 20.8H103.224L103.784 18H106.094L108.194 8.34L118.554 6.94L116.174 18H120.374L119.814 20.8H115.614L111.134 41.8C110.947 42.5 110.854 43.2467 110.854 44.04C110.854 44.9733 111.064 45.65 111.484 46.07C111.951 46.4433 112.697 46.63 113.724 46.63C115.077 46.63 116.337 46.07 117.504 44.95C118.671 43.7833 119.511 42.29 120.024 40.47H122.964C121.237 45.51 119.021 48.94 116.314 50.76C113.607 52.5333 110.924 53.42 108.264 53.42ZM131.686 14.22C130.146 14.22 128.839 13.6833 127.766 12.61C126.693 11.5367 126.156 10.23 126.156 8.69C126.156 7.15 126.693 5.84333 127.766 4.77C128.839 3.65 130.146 3.09 131.686 3.09C133.226 3.09 134.533 3.65 135.606 4.77C136.726 5.84333 137.286 7.15 137.286 8.69C137.286 10.23 136.726 11.5367 135.606 12.61C134.533 13.6833 133.226 14.22 131.686 14.22ZM126.926 53.42C124.686 53.42 122.866 52.72 121.466 51.32C120.113 49.92 119.436 47.82 119.436 45.02C119.436 43.8533 119.623 42.3367 119.996 40.47L124.756 18H134.836L129.796 41.8C129.609 42.5 129.516 43.2467 129.516 44.04C129.516 44.9733 129.726 45.65 130.146 46.07C130.613 46.4433 131.359 46.63 132.386 46.63C133.739 46.63 134.999 46.07 136.166 44.95C137.333 43.7833 138.173 42.29 138.686 40.47H141.626C139.899 45.51 137.683 48.94 134.976 50.76C132.269 52.5333 129.586 53.42 126.926 53.42ZM146.638 53.42C144.398 53.42 142.508 53 140.968 52.16C139.428 51.2733 138.285 50.1533 137.538 48.8C136.792 47.4 136.418 45.9533 136.418 44.46C136.418 42.92 136.792 41.59 137.538 40.47C138.238 39.3033 139.102 38.4633 140.128 37.95C141.948 34.6833 143.535 31.3933 144.888 28.08C146.242 24.72 147.525 21.1033 148.738 17.23L159.098 15.83C159.332 21.8033 159.728 28.2667 160.288 35.22C160.522 38.02 160.638 40.05 160.638 41.31C160.638 42.3833 160.545 43.27 160.358 43.97C162.552 42.71 164.232 41.5433 165.398 40.47H168.338C165.352 43.9233 161.782 46.84 157.628 49.22C156.275 50.6667 154.595 51.74 152.588 52.44C150.628 53.0933 148.645 53.42 146.638 53.42ZM144.398 47.89C146.125 47.89 147.572 47.3767 148.738 46.35C149.905 45.3233 150.488 43.6667 150.488 41.38C150.488 39.98 150.348 38.02 150.068 35.5C149.602 30.18 149.298 26.61 149.158 24.79C148.038 28.4767 146.148 32.8867 143.488 38.02C144.562 38.58 145.098 39.3967 145.098 40.47C145.098 41.3567 144.795 42.15 144.188 42.85C143.628 43.55 142.905 43.9 142.018 43.9C141.038 43.9 140.408 43.5967 140.128 42.99C140.128 44.67 140.455 45.9067 141.108 46.7C141.808 47.4933 142.905 47.89 144.398 47.89ZM190.657 53.42C187.81 53.42 185.71 52.6733 184.357 51.18C183.05 49.64 182.397 47.75 182.397 45.51C182.397 44.53 182.513 43.4333 182.747 42.22C182.98 40.96 183.213 39.7467 183.447 38.58C183.727 37.4133 183.913 36.6667 184.007 36.34C184.38 34.7067 184.73 33.0967 185.057 31.51C185.383 29.9233 185.547 28.64 185.547 27.66C185.547 25.28 184.707 24.09 183.027 24.09C181.813 24.09 180.74 24.6967 179.807 25.91C178.873 27.0767 178.127 28.6167 177.567 30.53L172.807 53H162.727L172.877 5.4L183.237 4L179.457 21.64C181.79 19.0267 184.52 17.72 187.647 17.72C190.027 17.72 191.917 18.3733 193.317 19.68C194.717 20.9867 195.417 22.97 195.417 25.63C195.417 26.9833 195.253 28.5 194.927 30.18C194.6 31.8133 194.133 33.82 193.527 36.2C193.153 37.6467 192.803 39.07 192.477 40.47C192.197 41.8233 192.057 42.8967 192.057 43.69C192.057 44.6233 192.267 45.3467 192.687 45.86C193.107 46.3733 193.83 46.63 194.857 46.63C196.257 46.63 197.377 46.14 198.217 45.16C199.057 44.1333 199.897 42.57 200.737 40.47H203.677C201.95 45.6033 199.943 49.0567 197.657 50.83C195.417 52.5567 193.083 53.42 190.657 53.42ZM210.739 53.42C207.285 53.42 204.602 52.5333 202.689 50.76C200.775 48.94 199.819 46.1167 199.819 42.29C199.819 39.07 200.449 35.5233 201.709 31.65C202.969 27.7767 205.022 24.44 207.869 21.64C210.715 18.7933 214.332 17.37 218.719 17.37C223.852 17.37 226.419 19.61 226.419 24.09C226.419 26.7033 225.672 29.1067 224.179 31.3C222.685 33.4933 220.702 35.2667 218.229 36.62C215.755 37.9267 213.119 38.6733 210.319 38.86C210.225 40.26 210.179 41.1933 210.179 41.66C210.179 43.9467 210.575 45.51 211.369 46.35C212.162 47.1433 213.445 47.54 215.219 47.54C217.739 47.54 219.885 46.9567 221.659 45.79C223.479 44.6233 225.462 42.85 227.609 40.47H229.989C224.809 49.1033 218.392 53.42 210.739 53.42ZM210.879 35.5C212.605 35.4067 214.239 34.8 215.779 33.68C217.365 32.56 218.625 31.1367 219.559 29.41C220.539 27.6833 221.029 25.8633 221.029 23.95C221.029 22.0367 220.445 21.08 219.279 21.08C217.599 21.08 215.942 22.55 214.309 25.49C212.722 28.43 211.579 31.7667 210.879 35.5ZM237.464 53.42C234.057 53.42 231.397 52.5333 229.484 50.76C227.57 48.94 226.614 46.1167 226.614 42.29C226.614 39.07 227.244 35.5233 228.504 31.65C229.764 27.7767 231.817 24.44 234.664 21.64C237.51 18.7933 241.127 17.37 245.514 17.37C250.647 17.37 253.214 19.61 253.214 24.09C253.214 26.7033 252.467 29.1067 250.974 31.3C249.48 33.4933 247.497 35.2667 245.024 36.62C242.55 37.9267 239.914 38.6733 237.114 38.86C237.02 39.8867 236.974 40.5867 236.974 40.96C236.974 44.8333 238.42 46.77 241.314 46.77C242.62 46.77 244.02 46.42 245.514 45.72C247.007 45.02 248.36 44.1333 249.574 43.06C248.314 49.9667 244.277 53.42 237.464 53.42ZM237.604 35.5C239.377 35.4533 241.034 34.87 242.574 33.75C244.16 32.63 245.42 31.2067 246.354 29.48C247.334 27.7067 247.824 25.8633 247.824 23.95C247.824 22.0367 247.24 21.08 246.074 21.08C244.44 21.08 242.807 22.5733 241.174 25.56C239.587 28.5 238.397 31.8133 237.604 35.5Z" fill="#7E1E80"/>
</svg>
