<svg width="25" height="24" viewBox="0 0 25 24" fill="none" xmlns="http://www.w3.org/2000/svg">
<g id="bill">
<g id="file">
<path id="Vector 1" d="M3.5 20V4C3.5 2.89543 4.39543 2 5.5 2H17.5H19.5C20.6046 2 21.5 2.89543 21.5 4V6V20C21.5 21.1046 20.6046 22 19.5 22H5.5C4.39543 22 3.5 21.1046 3.5 20Z" stroke="black" stroke-width="1.5"/>
<path id="Vector 32" d="M17.5 2V4C17.5 5.10457 18.3954 6 19.5 6H21.5" stroke="black" stroke-width="1.5" stroke-linecap="round"/>
</g>
<g id="list">
<path id="Vector" d="M10.2891 9.78949L18.4996 9.78949" stroke="black" stroke-width="1.5" stroke-linecap="round"/>
<path id="Vector_2" d="M10.2891 13.579L18.4996 13.579" stroke="black" stroke-width="1.5" stroke-linecap="round"/>
<path id="Vector_3" d="M10.2891 17.3685L18.4996 17.3685" stroke="black" stroke-width="1.5" stroke-linecap="round"/>
<g id="dots">
<path id="Vector_4" d="M7.28947 14.3684C7.72549 14.3684 8.07895 14.015 8.07895 13.579C8.07895 13.1429 7.72549 12.7895 7.28947 12.7895C6.85346 12.7895 6.5 13.1429 6.5 13.579C6.5 14.015 6.85346 14.3684 7.28947 14.3684Z" fill="black"/>
<path id="Vector_5" d="M7.28947 10.5789C7.72549 10.5789 8.07895 10.2255 8.07895 9.78947C8.07895 9.35346 7.72549 9 7.28947 9C6.85346 9 6.5 9.35346 6.5 9.78947C6.5 10.2255 6.85346 10.5789 7.28947 10.5789Z" fill="black"/>
<path id="Vector_6" d="M7.28947 18.1579C7.72549 18.1579 8.07895 17.8045 8.07895 17.3685C8.07895 16.9324 7.72549 16.579 7.28947 16.579C6.85346 16.579 6.5 16.9324 6.5 17.3685C6.5 17.8045 6.85346 18.1579 7.28947 18.1579Z" fill="black"/>
</g>
</g>
</g>
</svg>
