<svg width="20" height="21" viewBox="0 0 20 21" fill="none" xmlns="http://www.w3.org/2000/svg">
    <g id="Monochrome / bookmark">
        <path id="Vector"
            d="M14.958 18.3709L14.9582 18.371C14.9708 18.3783 14.9851 18.3821 14.9997 18.3821L15 19.1321L14.9995 18.3821C15.0217 18.3821 15.043 18.3733 15.0588 18.3575C15.0745 18.3418 15.0833 18.3205 15.0834 18.2983V4.96627C15.0828 4.50208 14.8982 4.05705 14.57 3.72882C14.2418 3.40067 13.7969 3.21605 13.3329 3.21545H6.66716C6.20309 3.21605 5.7582 3.40067 5.43005 3.72882C5.1019 4.05697 4.91729 4.50186 4.91669 4.96592V18.2985C4.91671 18.3131 4.92058 18.3275 4.92791 18.3402L4.27847 18.7153L4.92791 18.3402C4.93525 18.3529 4.94581 18.3635 4.95852 18.3708L4.95853 18.3708C4.97123 18.3781 4.98565 18.382 5.00034 18.382C5.01496 18.382 5.02932 18.3782 5.042 18.3709H14.958ZM14.958 18.3709L10.3747 15.7277L10 15.5116L9.62534 15.7277L5.04216 18.3708L14.958 18.3709Z"
            stroke="#606060" stroke-width="1.5" />
    </g>
</svg>
