<svg width="23" height="22" viewBox="0 0 23 22" fill="none" xmlns="http://www.w3.org/2000/svg">
<g id="call-help">
<g id="customer service">
<path id="Vector" d="M18.8333 8.24998C18.8333 4.70615 15.55 1.83331 11.5 1.83331C7.44987 1.83331 4.16663 4.70615 4.16663 8.24998" stroke="black" stroke-width="1.5"/>
<path id="Vector 1" d="M18.1666 8.24998H16.5833C16.3072 8.24998 16.0833 8.47384 16.0833 8.74998V15.0833C16.0833 15.3595 16.3072 15.5833 16.5833 15.5833H18.1666C19.5474 15.5833 20.6666 14.464 20.6666 13.0833V10.75C20.6666 9.36927 19.5474 8.24998 18.1666 8.24998Z" stroke="black" stroke-width="1.5"/>
<path id="Vector 2" d="M18.8333 15.5833V16.3333C18.8333 17.4379 17.9379 18.3333 16.8333 18.3333H14.25" stroke="black" stroke-width="1.5"/>
<path id="Vector 3" d="M10.5833 16.5H12.4167C13.4292 16.5 14.25 17.3208 14.25 18.3333C14.25 19.3458 13.4292 20.1666 12.4167 20.1666H10.5833C9.57081 20.1666 8.75 19.3458 8.75 18.3333C8.75 17.3208 9.57081 16.5 10.5833 16.5Z" stroke="black" stroke-width="1.5"/>
<path id="Vector 1_2" d="M6.41665 8.24998H4.83331C3.4526 8.24998 2.33331 9.36927 2.33331 10.75V13.0833C2.33331 14.464 3.4526 15.5833 4.83331 15.5833H6.41665C6.69279 15.5833 6.91665 15.3595 6.91665 15.0833V8.74998C6.91665 8.47384 6.69279 8.24998 6.41665 8.24998Z" stroke="black" stroke-width="1.5"/>
</g>
</g>
</svg>
