<svg width="24" height="24" viewBox="0 0 24 24" fill="none" xmlns="http://www.w3.org/2000/svg">
<g id="Communication / call">
<path id="Vector" d="M19.0857 12.9524C18.8762 12.9524 18.6571 12.8857 18.4476 12.8381C18.0233 12.7446 17.6063 12.6205 17.2 12.4667C16.7582 12.306 16.2725 12.3143 15.8365 12.4901C15.4004 12.6659 15.0448 12.9968 14.8381 13.4191L14.6285 13.8476C13.7009 13.3316 12.8485 12.6907 12.0952 11.9429C11.3474 11.1896 10.7065 10.3372 10.1905 9.40955L10.5905 9.14288C11.0127 8.93613 11.3436 8.58053 11.5194 8.14449C11.6952 7.70845 11.7036 7.2228 11.5428 6.78098C11.3916 6.37376 11.2675 5.95697 11.1714 5.53336C11.1238 5.32383 11.0857 5.10479 11.0571 4.88574C10.9415 4.2149 10.5901 3.6074 10.0663 3.17263C9.54247 2.73787 8.88064 2.50441 8.19997 2.51431H5.34283C4.93238 2.51046 4.52593 2.59508 4.15113 2.76243C3.77633 2.92978 3.44198 3.17592 3.17086 3.4841C2.89974 3.79228 2.6982 4.15526 2.57996 4.54832C2.46173 4.94139 2.42957 5.35532 2.48569 5.76193C2.99306 9.75182 4.81524 13.459 7.6644 16.2978C10.5136 19.1366 14.2273 20.9453 18.219 21.4381H18.5809C19.2832 21.4391 19.9613 21.1815 20.4857 20.7143C20.787 20.4448 21.0277 20.1145 21.1918 19.7451C21.356 19.3757 21.4399 18.9757 21.4381 18.5715V15.7143C21.4264 15.0528 21.1855 14.4158 20.7565 13.9121C20.3275 13.4084 19.7369 13.0692 19.0857 12.9524ZM19.5619 18.6667C19.5617 18.8019 19.5327 18.9356 19.4769 19.0587C19.4211 19.1819 19.3397 19.2917 19.2381 19.381C19.132 19.4734 19.0076 19.5423 18.873 19.5834C18.7384 19.6244 18.5967 19.6366 18.4571 19.6191C14.8904 19.1617 11.5773 17.53 9.04066 14.9813C6.50397 12.4325 4.88798 9.11177 4.44759 5.54288C4.43244 5.40337 4.44572 5.26224 4.48664 5.12802C4.52757 4.99379 4.59528 4.86925 4.68569 4.76193C4.77494 4.66034 4.88479 4.57892 5.00795 4.52309C5.13111 4.46726 5.26475 4.43829 5.39997 4.43812H8.25712C8.47859 4.43319 8.69485 4.50562 8.86868 4.64295C9.04251 4.78027 9.16303 4.9739 9.2095 5.1905C9.24759 5.45082 9.29521 5.70796 9.35235 5.96193C9.46237 6.46397 9.60879 6.95734 9.79045 7.43812L8.45712 8.05717C8.34311 8.10947 8.24057 8.18378 8.15536 8.27583C8.07016 8.36788 8.00397 8.47585 7.96061 8.59354C7.91725 8.71124 7.89757 8.83634 7.90269 8.96166C7.90781 9.08699 7.93763 9.21007 7.99045 9.32383C9.36112 12.2598 11.7212 14.6198 14.6571 15.9905C14.889 16.0858 15.1491 16.0858 15.3809 15.9905C15.4997 15.948 15.6089 15.8824 15.702 15.7973C15.7952 15.7123 15.8706 15.6096 15.9238 15.4953L16.5143 14.1619C17.0066 14.338 17.5091 14.4843 18.019 14.6C18.273 14.6572 18.5301 14.7048 18.7904 14.7429C19.007 14.7893 19.2007 14.9099 19.338 15.0837C19.4753 15.2575 19.5478 15.4738 19.5428 15.6953L19.5619 18.6667Z" fill="black"/>
</g>
</svg>
