<svg width="22" height="22" viewBox="0 0 22 22" fill="none" xmlns="http://www.w3.org/2000/svg">
<g id="camera-01">
<path id="Icon" d="M6.60001 5.61021V6.61021C6.95568 6.61021 7.28458 6.4213 7.46379 6.11409L6.60001 5.61021ZM8.14001 2.97021V1.97021C7.78434 1.97021 7.45544 2.15913 7.27623 2.46634L8.14001 2.97021ZM13.86 2.97021L14.7238 2.46634C14.5446 2.15913 14.2157 1.97021 13.86 1.97021V2.97021ZM15.4 5.61021L14.5362 6.11409C14.7154 6.4213 15.0443 6.61021 15.4 6.61021V5.61021ZM3.20001 16.8302V7.81021H1.20001V16.8302H3.20001ZM4.40001 6.61021H6.60001V4.61021H4.40001V6.61021ZM7.46379 6.11409L9.00379 3.47409L7.27623 2.46634L5.73623 5.10634L7.46379 6.11409ZM8.14001 3.97021H13.86V1.97021H8.14001V3.97021ZM12.9962 3.47409L14.5362 6.11409L16.2638 5.10634L14.7238 2.46634L12.9962 3.47409ZM15.4 6.61021H17.6V4.61021H15.4V6.61021ZM18.8 7.81021V16.8302H20.8V7.81021H18.8ZM18.8 16.8302C18.8 17.493 18.2628 18.0302 17.6 18.0302V20.0302C19.3673 20.0302 20.8 18.5975 20.8 16.8302H18.8ZM17.6 6.61021C18.2628 6.61021 18.8 7.14747 18.8 7.81021H20.8C20.8 6.0429 19.3673 4.61021 17.6 4.61021V6.61021ZM3.20001 7.81021C3.20001 7.14747 3.73727 6.61021 4.40001 6.61021V4.61021C2.6327 4.61021 1.20001 6.0429 1.20001 7.81021H3.20001ZM4.40001 18.0302C3.73727 18.0302 3.20001 17.493 3.20001 16.8302H1.20001C1.20001 18.5975 2.6327 20.0302 4.40001 20.0302V18.0302ZM13.3 11.7702C13.3 13.0405 12.2703 14.0702 11 14.0702V16.0702C13.3748 16.0702 15.3 14.145 15.3 11.7702H13.3ZM11 14.0702C9.72976 14.0702 8.70001 13.0405 8.70001 11.7702H6.70001C6.70001 14.145 8.62519 16.0702 11 16.0702V14.0702ZM8.70001 11.7702C8.70001 10.5 9.72976 9.47021 11 9.47021V7.47021C8.62519 7.47021 6.70001 9.39539 6.70001 11.7702H8.70001ZM11 9.47021C12.2703 9.47021 13.3 10.5 13.3 11.7702H15.3C15.3 9.39539 13.3748 7.47021 11 7.47021V9.47021ZM17.6 18.0302H4.40001V20.0302H17.6V18.0302Z" fill="#606060"/>
</g>
</svg>
