<svg width="23" height="23" viewBox="0 0 23 23" fill="none" xmlns="http://www.w3.org/2000/svg">
<g id="chat">
<path id="Vector" d="M18.7598 9.90475V4.82539C18.7598 3.70328 17.8805 2.79364 16.7958 2.79364H5.01163C3.92693 2.79364 3.04761 3.70329 3.04761 4.82539V12.7757C3.04761 13.8978 3.92693 14.8074 5.01163 14.8074H6.54869V19.0476L10.6475 14.8074H10.9037M18.7598 9.90475H12.8677C11.783 9.90475 10.9037 10.8144 10.9037 11.9365V15.3816C10.9037 16.5037 11.783 17.4134 12.8677 17.4134H15.9739L18.5356 20.0635V17.4134H18.7598C19.8445 17.4134 20.7238 16.5037 20.7238 15.3816V11.9365C20.7238 10.8144 19.8445 9.90475 18.7598 9.90475Z" stroke="black" stroke-width="1.8" stroke-linecap="round" stroke-linejoin="round"/>
</g>
</svg>
