<svg width="24" height="24" viewBox="0 0 24 24" fill="none" xmlns="http://www.w3.org/2000/svg">
<g id="Multimedia / clapper board">
<path id="Vector" d="M19 3H5C4.20435 3 3.44129 3.30027 2.87868 3.83475C2.31607 4.36922 2 5.09413 2 5.85V19.15C2 19.9059 2.31607 20.6308 2.87868 21.1653C3.44129 21.6997 4.20435 22 5 22H19C19.7956 22 20.5587 21.6997 21.1213 21.1653C21.6839 20.6308 22 19.9059 22 19.15V5.85C22 5.09413 21.6839 4.36922 21.1213 3.83475C20.5587 3.30027 19.7956 3 19 3ZM16.09 4.9L12.09 8.7H7.91L11.91 4.9H16.09ZM4 5.85C4 5.59804 4.10536 5.35641 4.29289 5.17825C4.48043 5.00009 4.73478 4.9 5 4.9H9.09L5.09 8.7H4V5.85ZM20 19.15C20 19.402 19.8946 19.6436 19.7071 19.8218C19.5196 19.9999 19.2652 20.1 19 20.1H5C4.73478 20.1 4.48043 19.9999 4.29289 19.8218C4.10536 19.6436 4 19.402 4 19.15V10.6H20V19.15ZM20 8.7H14.91L18.91 4.9H19C19.2652 4.9 19.5196 5.00009 19.7071 5.17825C19.8946 5.35641 20 5.59804 20 5.85V8.7Z" fill="black"/>
</g>
</svg>
