<svg width="12" height="12" viewBox="0 0 12 12" fill="none" xmlns="http://www.w3.org/2000/svg">
<path d="M9.45754 1.05754C9.86759 0.647487 10.5324 0.647487 10.9425 1.05754C11.3152 1.43031 11.3491 2.01364 11.0441 2.4247L10.9425 2.54246L2.54246 10.9425C2.13241 11.3525 1.46759 11.3525 1.05754 10.9425C0.684765 10.5697 0.650876 9.98636 0.955872 9.5753L1.05754 9.45754L9.45754 1.05754Z" fill="#161455"/>
<path d="M1.05754 1.05754C1.43031 0.684765 2.01364 0.650876 2.4247 0.955872L2.54246 1.05754L10.9425 9.45754C11.3525 9.86759 11.3525 10.5324 10.9425 10.9425C10.5697 11.3152 9.98636 11.3491 9.5753 11.0441L9.45754 10.9425L1.05754 2.54246C0.647487 2.13241 0.647487 1.46759 1.05754 1.05754Z" fill="#161455"/>
</svg>
