<svg width="24" height="24" viewBox="0 0 24 24" fill="none" xmlns="http://www.w3.org/2000/svg">
<path d="M1.46952 16.3296L1.46951 16.3296C1.125 16.6312 0.831423 17.062 0.772684 17.6525C0.74007 17.9803 0.749493 18.747 0.75908 19.2312C0.769027 19.7336 1.10955 19.97 1.33916 19.97H3.32661C3.29341 19.7631 3.27354 19.551 3.26796 19.3349C3.26796 19.3349 3.26796 19.3349 3.26796 19.3349L3.26745 19.3151C3.2548 18.8265 3.2193 17.4554 3.31054 16.6911C3.36024 16.2746 3.44733 15.8832 3.56219 15.5195L3.5622 15.5195C3.56655 15.5057 3.57095 15.4919 3.57538 15.4783C3.23011 15.5302 2.9185 15.6084 2.64711 15.6952L1.46952 16.3296ZM1.46952 16.3296C1.81419 16.0278 2.24263 15.8245 2.64705 15.6952L1.46952 16.3296Z" stroke="#7E1E80" stroke-width="1.5"/>
<path d="M23.2273 17.6525L23.2273 17.6524C23.1686 17.062 22.875 16.6313 22.5305 16.3296L22.5304 16.3296C22.1857 16.0278 21.7573 15.8245 21.353 15.6952L23.2273 17.6525ZM23.2273 17.6525C23.2599 17.9803 23.2505 18.7471 23.2409 19.2311C23.231 19.7336 22.8904 19.97 22.6608 19.97H20.6733M23.2273 17.6525L20.6733 19.97M20.4378 15.5194L20.4378 15.5195C20.5526 15.8832 20.6397 16.2746 20.6894 16.6911L20.4378 15.5194ZM20.4378 15.5194C20.4334 15.5057 20.429 15.4919 20.4246 15.4783M20.4378 15.5194L20.4246 15.4783M20.6733 19.97C20.7065 19.7631 20.7264 19.551 20.7319 19.3349C20.7319 19.3349 20.7319 19.3349 20.7319 19.3348M20.6733 19.97L20.7319 19.3348M20.4246 15.4783C20.7698 15.5302 21.0815 15.6084 21.3529 15.6952L20.4246 15.4783ZM20.7319 19.3348L20.7324 19.316C20.7451 18.8281 20.7807 17.4559 20.6894 16.6911L20.7319 19.3348Z" stroke="#7E1E80" stroke-width="1.5"/>
<path d="M18.1831 17.0511C18.1564 16.8269 18.1098 16.6186 18.0493 16.4268C17.8168 15.6908 17.3521 15.2 16.8827 14.872L18.1831 17.0511ZM18.1831 17.0511C18.2431 17.5535 18.2201 18.6834 18.2053 19.2563L18.1831 17.0511ZM17.3341 16.6527C17.3809 16.8011 17.4173 16.9635 17.4383 17.1398L17.4383 17.14C17.4903 17.575 17.471 18.6383 17.4555 19.2369L17.4555 19.237C17.4427 19.7361 17.1043 19.97 16.8757 19.97H7.1244C6.89577 19.97 6.55742 19.7361 6.54453 19.2369L6.54453 19.2369C6.52906 18.6383 6.50976 17.575 6.56168 17.14C6.58277 16.9633 6.61923 16.8009 6.66603 16.6527L6.66603 16.6527C6.83681 16.1119 7.17655 15.7457 7.54697 15.4868L7.54707 15.4868C7.91976 15.2263 8.35496 15.0524 8.76265 14.9183L17.3341 16.6527ZM16.4531 15.4868C16.8234 15.7456 17.1631 16.1118 17.334 16.6524L8.76271 14.9183C9.54273 14.6618 10.6608 14.4034 12.0001 14.4034C13.3394 14.4034 14.4574 14.6618 15.2374 14.9183C15.6451 15.0524 16.0803 15.2263 16.453 15.4868L16.4531 15.4868Z" stroke="#7E1E80" stroke-width="1.5"/>
<path d="M17.6389 10.0532C17.6389 8.70489 18.5816 7.78229 19.5555 7.78229C20.5295 7.78229 21.4722 8.70491 21.4722 10.0532C21.4722 11.4054 20.5262 12.3355 19.5555 12.3355C18.585 12.3355 17.6389 11.4055 17.6389 10.0532Z" stroke="#7E1E80" stroke-width="1.5"/>
<path d="M9.19434 8.04307C9.19434 6.13335 10.5384 4.75 11.9999 4.75C13.4613 4.75 14.8054 6.13335 14.8054 8.04307C14.8054 9.94991 13.4639 11.3248 11.9999 11.3248C10.5358 11.3248 9.19434 9.94991 9.19434 8.04307Z" stroke="#7E1E80" stroke-width="1.5"/>
<path d="M2.52783 10.0532C2.52783 8.70491 3.47051 7.78229 4.4445 7.78229C5.41848 7.78229 6.36116 8.70491 6.36116 10.0532C6.36116 11.4054 5.41509 12.3355 4.4445 12.3355C3.4739 12.3355 2.52783 11.4054 2.52783 10.0532Z" stroke="#7E1E80" stroke-width="1.5"/>
</svg>
