<svg width="24" height="19" viewBox="0 0 24 19" fill="none" xmlns="http://www.w3.org/2000/svg">
<g id="iconoir:community">
<path id="Vector" d="M7 15.5V14.5C7 13.1739 7.52678 11.9021 8.46447 10.9645C9.40215 10.0268 10.6739 9.5 12 9.5M12 9.5C13.3261 9.5 14.5979 10.0268 15.5355 10.9645C16.4732 11.9021 17 13.1739 17 14.5V15.5M12 9.5C12.7956 9.5 13.5587 9.18393 14.1213 8.62132C14.6839 8.05871 15 7.29565 15 6.5C15 5.70435 14.6839 4.94129 14.1213 4.37868C13.5587 3.81607 12.7956 3.5 12 3.5C11.2044 3.5 10.4413 3.81607 9.87868 4.37868C9.31607 4.94129 9 5.70435 9 6.5C9 7.29565 9.31607 8.05871 9.87868 8.62132C10.4413 9.18393 11.2044 9.5 12 9.5ZM1 15.5V14.5C1 13.7044 1.31607 12.9413 1.87868 12.3787C2.44129 11.8161 3.20435 11.5 4 11.5M4 11.5C4.53043 11.5 5.03914 11.2893 5.41421 10.9142C5.78929 10.5391 6 10.0304 6 9.5C6 8.96957 5.78929 8.46086 5.41421 8.08579C5.03914 7.71071 4.53043 7.5 4 7.5C3.46957 7.5 2.96086 7.71071 2.58579 8.08579C2.21071 8.46086 2 8.96957 2 9.5C2 10.0304 2.21071 10.5391 2.58579 10.9142C2.96086 11.2893 3.46957 11.5 4 11.5ZM23 15.5V14.5C23 13.7044 22.6839 12.9413 22.1213 12.3787C21.5587 11.8161 20.7956 11.5 20 11.5M20 11.5C20.5304 11.5 21.0391 11.2893 21.4142 10.9142C21.7893 10.5391 22 10.0304 22 9.5C22 8.96957 21.7893 8.46086 21.4142 8.08579C21.0391 7.71071 20.5304 7.5 20 7.5C19.4696 7.5 18.9609 7.71071 18.5858 8.08579C18.2107 8.46086 18 8.96957 18 9.5C18 10.0304 18.2107 10.5391 18.5858 10.9142C18.9609 11.2893 19.4696 11.5 20 11.5Z" stroke="black" stroke-width="1.5" stroke-linecap="round" stroke-linejoin="round"/>
</g>
</svg>
