<svg width="24" height="24" viewBox="0 0 24 24" fill="none" xmlns="http://www.w3.org/2000/svg">
<path d="M4.7595 14.6706C4.65644 14.6656 4.55139 14.663 4.44446 14.663C3.65152 14.663 2.96238 14.807 2.41872 14.9808C1.95159 15.1301 1.42115 15.3751 0.975466 15.7653C0.521192 16.163 0.107939 16.7583 0.0263682 17.5782C-0.0117388 17.9613 2.95304e-05 18.7815 0.00922728 19.246C0.0256195 20.074 0.623061 20.72 1.33916 20.72H4.31303C4.13562 20.2944 4.03074 19.82 4.01771 19.3155C4.00494 18.8214 3.97075 17.4878 4.05525 16.78C4.09928 16.4111 4.17628 16.0655 4.27738 15.7453C4.40496 15.3414 4.57082 14.9848 4.7595 14.6706Z" fill="#7E1E80"/>
<path d="M19.6869 20.72H22.6608C23.3769 20.72 23.9744 20.074 23.9908 19.246C24 18.7815 24.0117 17.9613 23.9736 17.5782C23.8921 16.7583 23.4788 16.163 23.0245 15.7653C22.5788 15.3751 22.0484 15.1301 21.5813 14.9808C21.0376 14.807 20.3485 14.663 19.5555 14.663C19.4486 14.663 19.3435 14.6656 19.2405 14.6706C19.4291 14.9848 19.595 15.3414 19.7226 15.7453C19.8237 16.0655 19.9007 16.4111 19.9447 16.78C20.0292 17.4878 19.995 18.8214 19.9822 19.3155C19.9692 19.82 19.8643 20.2944 19.6869 20.72Z" fill="#7E1E80"/>
<path fill-rule="evenodd" clip-rule="evenodd" d="M8.52837 14.2058C9.36693 13.9301 10.565 13.6534 12.0001 13.6534C13.4352 13.6534 14.6332 13.9301 15.4717 14.2058C15.904 14.348 16.4207 14.5492 16.8827 14.872C17.3521 15.2 17.8168 15.6908 18.0493 16.4268C18.1098 16.6186 18.1564 16.8269 18.1831 17.0511C18.2431 17.5535 18.2201 18.6834 18.2053 19.2563C18.1841 20.0799 17.5885 20.72 16.8757 20.72H7.1244C6.41161 20.72 5.81605 20.0799 5.79478 19.2563C5.77998 18.6834 5.757 17.5535 5.81697 17.0511C5.84373 16.8269 5.89027 16.6186 5.95085 16.4268C6.1833 15.6908 6.64799 15.2 7.11742 14.872C7.57939 14.5492 8.09608 14.348 8.52837 14.2058Z" fill="#7E1E80"/>
<path fill-rule="evenodd" clip-rule="evenodd" d="M16.8889 10.0532C16.8889 8.38064 18.0828 7.03229 19.5555 7.03229C21.0283 7.03229 22.2222 8.38064 22.2222 10.0532C22.2222 11.7259 21.0283 13.0855 19.5555 13.0855C18.0828 13.0855 16.8889 11.7259 16.8889 10.0532Z" fill="#7E1E80"/>
<path fill-rule="evenodd" clip-rule="evenodd" d="M8.44434 8.04307C8.44434 5.81294 10.0362 4 11.9999 4C13.9635 4 15.5554 5.81294 15.5554 8.04307C15.5554 10.2732 13.9635 12.0748 11.9999 12.0748C10.0362 12.0748 8.44434 10.2732 8.44434 8.04307Z" fill="#7E1E80"/>
<path fill-rule="evenodd" clip-rule="evenodd" d="M1.77783 10.0532C1.77783 8.38064 2.97174 7.03229 4.4445 7.03229C5.91725 7.03229 7.11116 8.38064 7.11116 10.0532C7.11116 11.7259 5.91725 13.0855 4.4445 13.0855C2.97174 13.0855 1.77783 11.7259 1.77783 10.0532Z" fill="#7E1E80"/>
</svg>
