<svg xmlns="http://www.w3.org/2000/svg" width="152.357" height="122.116" viewBox="0 0 152.357 122.116">
  <g id="Default_page" data-name="Default page" transform="translate(0 -98.457)">
    <path id="Path_2978" data-name="Path 2978" d="M131.925,279.943a62.769,62.769,0,0,1-12.4-12.573c-1.335-1.932-2.564-3.934-3.723-5.971a2.967,2.967,0,0,0-1.932-1.44c-3.442-.948-6.884-1.967-10.326-2.985a6.638,6.638,0,0,1,3.582-12.784c.948.246,1.9.457,3.02.773-.211-2.248-.421-4.39-.6-6.568-.07-.7-.527-.738-1.089-.808-1.475-.211-2.95-.421-4.39-.7-3.3-.632-5.233-3.056-4.636-5.795a5.477,5.477,0,0,1,6.6-3.969h.07c.773.14,1.58.105,2.318.316,1.651.457,2.072-.316,2.353-1.721a51.266,51.266,0,0,1,13.381-26.025,53.364,53.364,0,0,1,68.451-8.253,49.666,49.666,0,0,1,10.782,9.483,4.055,4.055,0,0,0,3.407,1.4c3.617.14,7.13-.527,10.747-.421a5.078,5.078,0,0,1,5.093,4.882,4.872,4.872,0,0,1-4.812,4.952h-.351c-1.756,0-3.442.6-5.268.421-.878-.07-.948.351-.667,1.089.808,2,1.651,3.969,2.318,6.006.281.878.667.983,1.4.7,1.616-.527,3.231-1.089,4.812-1.616a6.619,6.619,0,0,1,4.144,12.573h-.035a49.392,49.392,0,0,1-5.022,1.651c-1.932.457-2.634,1.335-2.6,3.477A51.062,51.062,0,0,1,210.7,260.7a49.771,49.771,0,0,1-8.429,11.906,24.221,24.221,0,0,1-3.653,3.442c-.6-1.9-1.58-3.934-3.617-3.969-3.126-.07-2.88-1.9-2.739-3.934a13.163,13.163,0,0,0,0-2.353c-.105-.983.281-1.44,1.194-1.932a11.522,11.522,0,0,0,5.619-15.278,11.652,11.652,0,0,0-5.619-5.619,1.8,1.8,0,0,1-1.194-1.932c.035-4.776.035-9.553.035-14.329,0-5.725-3.091-8.815-8.815-8.815H144.358c-5.725,0-8.85,3.091-8.85,8.815v49.837c-.035,3.617-.035,3.617-3.582,3.407Zm36.526-79.795a4.917,4.917,0,1,0-4.917,4.917h.035A4.924,4.924,0,0,0,168.451,200.148Zm-41.9,15.1a2.826,2.826,0,1,0-.07,0Zm-5.128,20.019c1.194-.246,1.932-.878,1.861-2.072a1.814,1.814,0,0,0-1.826-1.826h-.105a1.771,1.771,0,0,0-1.932,1.58v.386C119.422,234.567,120.23,235.164,121.424,235.269Zm83.518-12.187a1.5,1.5,0,0,0-1.545-1.475,1.452,1.452,0,0,0-1.58,1.3v.316a1.411,1.411,0,0,0,1.335,1.475h.14a1.578,1.578,0,0,0,1.651-1.616Z" transform="translate(-84.018 -71.663)" fill="#ededed"/>
    <path id="Path_2979" data-name="Path 2979" d="M227.793,482.426c3.547.211,3.547.211,3.547-3.3v-49.8c0-5.725,3.091-8.815,8.815-8.815h39.23c5.725,0,8.815,3.091,8.815,8.815,0,4.776.035,9.553-.035,14.329a1.8,1.8,0,0,0,1.194,1.932,11.522,11.522,0,0,1,5.619,15.278,11.652,11.652,0,0,1-5.619,5.619,1.71,1.71,0,0,0-1.194,1.932,13.163,13.163,0,0,1,0,2.353c-.105,2.037-.386,3.863,2.739,3.934,2.037.035,3.02,2.072,3.617,3.969a8.977,8.977,0,0,1-.913,3.934H300c.738,0,1.826-.141,1.861.913.035,1.264-1.089,1.019-1.932,1.019H212.41a.956.956,0,0,1-1.089-.808v-.07c-.035-.737.421-1.054,1.089-1.054,1.44-.035,2.88,0,4.32,0,3.723-.141,7.411-.141,11.063-.176Zm5.514-27.956c0,8.71.035,17.385-.035,26.095,0,1.124.211,1.58,1.475,1.58,6.743-.07,13.451-.035,20.23-.035.527,0,1.124.14,1.616-.422,1.194-1.616,2.564-3.02,1.264-5.374-.983-1.826-.7-2,1.44-2h22.2c1.58,0,3.653.527,4.531-.316,1.054-.948.141-3.056.351-4.671.14-1.3-.141-1.756-1.651-1.721a11.537,11.537,0,1,1-.035-23.074h.07c1.475,0,1.686-.457,1.651-1.756-.07-4.531-.035-9.026-.035-13.557,0-4.425-2.318-6.743-6.778-6.743H240.085c-4.46,0-6.778,2.283-6.778,6.743V454.47Zm51.312-8.464a9.992,9.992,0,1,0,9.939,10.045A10,10,0,0,0,284.618,446.006ZM258.488,482.5h25.884c1.686,0,3.407.035,5.093-.035a3.073,3.073,0,0,0,3.091-3.091v-.07a3.125,3.125,0,0,0-3.126-3.091H261.4a1.736,1.736,0,0,0-1.44.351c1.51,2.283-.176,3.969-1.475,5.935Zm17.525,12.187H243.281c-.527,0-1.054,0-1.58-.035a.936.936,0,0,1-.878-.983.923.923,0,0,1,.913-.878c.457-.035.913-.035,1.37-.035h65.887c.457,0,.913,0,1.37.035a.981.981,0,0,1,1.019.948v.035a.915.915,0,0,1-.913.948h-.105l-34.348-.035Zm-35.577-5.514H225.369c-.773,0-1.756.14-1.826-.948-.035-1.089.948-1.019,1.721-1.019h30.555c.773,0,1.756-.07,1.721,1.019s-1.054.948-1.861.948H240.436Z" transform="translate(-179.885 -274.146)" fill="#ddd"/>
    <path id="Path_2980" data-name="Path 2980" d="M152.357,324.508a4.177,4.177,0,0,1-4.109,4.074,4.092,4.092,0,1,1,4.109-4.074ZM7.483,349.514A3.742,3.742,0,1,1,3.62,345.9h.07a3.615,3.615,0,0,1,3.758,3.477.211.211,0,0,1,.035.141Z" transform="translate(0 -188.928)" fill="#ededed"/>
    <path id="Path_2981" data-name="Path 2981" d="M195.574,220.537h-8.6c-.738,0-1.58.035-1.616-.948s.773-1.019,1.545-1.019h17.6c.738,0,1.58.035,1.545,1.019s-.913.948-1.651.948Zm64.974-5.514H252.54c-.738,0-1.58.035-1.616-.948s.773-1.019,1.545-1.019h16.4c.738,0,1.58.07,1.545,1.054s-.913.948-1.651.913h-8.218Zm-6.954-112.844a3.723,3.723,0,1,1-3.723-3.723A3.725,3.725,0,0,1,253.594,102.179Zm-1.545-.035a2.177,2.177,0,1,0-2.178,2.177h.07a2.13,2.13,0,0,0,2.107-2.177Zm35.788,108.138c-.808,0-1.686.035-2.529,0a1.035,1.035,0,0,1-1.054-1.054v-.105a1,1,0,0,1,.913-1.124h.141q2.634-.053,5.268,0a1,1,0,0,1,1.054.983v.141a1.055,1.055,0,0,1-.948,1.124h-.105C289.663,210.317,288.75,210.282,287.837,210.282Zm-44.147,4.706c-.808,0-1.686.035-2.529,0a.923.923,0,0,1-.913-.878.862.862,0,0,1,.667-.983h.07c1.826-.07,3.617-.07,5.444-.035a.873.873,0,0,1,.808.948.861.861,0,0,1-.808.913h-.035A17.2,17.2,0,0,1,243.689,214.988Z" transform="translate(-157.781)" fill="#ddd"/>
    <path id="Path_2982" data-name="Path 2982" d="M511.543,272.191a4.9,4.9,0,1,1-4.882-4.917h.07A4.887,4.887,0,0,1,511.543,272.191Zm-4.917-2.95a3.017,3.017,0,0,0-2.95,2.81,2.947,2.947,0,0,0,2.88,3.02h.035a2.908,2.908,0,0,0,2.915-2.915,2.856,2.856,0,0,0-2.88-2.915Z" transform="translate(-427.11 -143.706)" fill="#ededed"/>
    <path id="Path_2983" data-name="Path 2983" d="M245.141,368.291a2.933,2.933,0,1,1,2.95-2.915v.07A2.971,2.971,0,0,1,245.141,368.291Zm-5.128,20.019c-1.229-.105-2-.7-2-1.967a1.932,1.932,0,0,1,3.863.07A1.928,1.928,0,0,1,240.014,388.31Zm83.518-12.187c-.105.983-.632,1.616-1.616,1.58a1.383,1.383,0,0,1-1.475-1.3v-.176a1.492,1.492,0,0,1,1.335-1.616h.246C322.934,374.613,323.391,375.21,323.531,376.123Zm-67.5,28.9V379.705c0-4.425,2.318-6.743,6.778-6.743h39.441c4.46,0,6.743,2.283,6.778,6.743,0,4.531-.035,9.026.035,13.557,0,1.264-.14,1.756-1.651,1.756a11.52,11.52,0,1,0-.14,23.039h.07c1.475,0,1.826.421,1.651,1.721-.211,1.616.7,3.723-.351,4.671-.878.773-2.985.281-4.531.316h-22.2c-2.142,0-2.423.211-1.44,2,1.3,2.353-.07,3.758-1.264,5.374-.421.632-1.054.421-1.616.421-6.743,0-13.451-.035-20.23.035-1.264,0-1.475-.386-1.475-1.58.176-8.569.105-17.279.14-25.99Zm27.078-24.163h-20.23c-2.248,0-3.372.808-3.337,2.388s1.089,2.283,3.407,2.318H302.81c2.318,0,3.407-.738,3.407-2.318.035-1.616-1.089-2.388-3.547-2.388H283.107Zm-5.3,11.379H262.877c-2.213,0-3.372.878-3.336,2.388.035,1.475,1.124,2.318,3.266,2.318h30.029c2.107,0,3.2-.773,3.231-2.318.035-1.58-1.089-2.388-3.337-2.388Zm-5.409,17.28h9.8c1.58,0,2.7-.632,2.81-2.318.105-1.44-1.018-2.388-2.915-2.388-6.568-.035-13.065,0-19.633,0-1.9,0-2.985.948-2.95,2.388s1.089,2.318,3.02,2.318H272.4Z" transform="translate(-202.608 -224.704)" fill="#fcfcfc"/>
    <path id="Path_2984" data-name="Path 2984" d="M543.094,180.7a9.993,9.993,0,1,1-10.115,9.869A10.113,10.113,0,0,1,543.094,180.7Zm-26.13,36.491c1.335-2,3.02-3.688,1.4-5.9a1.8,1.8,0,0,1,1.44-.351h28.026a3.108,3.108,0,1,1,.035,6.216c-1.686.07-3.407.035-5.092.035H516.964Zm15.664-106.206c-.141,1.264-.773,2.107-2.072,2.142a2.144,2.144,0,1,1,2.072-2.213v.07Zm-14.751,23.391a3.006,3.006,0,0,1,2.95,3.02,2.934,2.934,0,1,1-2.95-3.02Z" transform="translate(-438.361 -8.838)" fill="#f6f6f6"/>
    <path id="Path_2985" data-name="Path 2985" d="M406.308,486.382H425.94c2.388,0,3.582.773,3.547,2.388-.035,1.58-1.124,2.283-3.407,2.318H386.218c-2.318,0-3.407-.738-3.407-2.318-.035-1.58,1.089-2.388,3.336-2.388h20.159Zm-.386,3.126h19.633c.527,0,1.054,0,1.58-.035a.735.735,0,0,0,.738-.7v-.035a.768.768,0,0,0-.7-.773c-.457-.035-.913-.035-1.37-.035H386.57a11.9,11.9,0,0,0-1.58.07.723.723,0,0,0-.527.878.675.675,0,0,0,.527.527,7.945,7.945,0,0,0,1.58.07c6.392.035,12.854.035,19.352.035ZM401,497.761h14.926c2.248,0,3.372.808,3.336,2.388-.035,1.475-1.124,2.318-3.231,2.318H386.008c-2.107,0-3.231-.773-3.266-2.318-.035-1.58,1.089-2.388,3.337-2.388H401Zm0,3.126h14.926c.667,0,1.686.246,1.651-.773,0-1.054-1.019-.773-1.686-.773H386.113c-.667,0-1.686-.246-1.651.773,0,1.054,1.019.773,1.686.773,4.917.035,9.9,0,14.856,0ZM395.6,515.041h-9.8c-1.932,0-2.985-.878-3.02-2.318s1.054-2.388,2.95-2.388h19.633c1.9,0,3.02.948,2.915,2.388-.141,1.686-1.264,2.318-2.81,2.318H395.6Zm-.07-1.58h9.623c.632,0,1.475.14,1.475-.773,0-.948-.878-.773-1.475-.773H385.938c-.632,0-1.475-.14-1.475.773,0,.948.878.773,1.475.773h9.588Z" transform="translate(-325.808 -330.222)" fill="#ddd"/>
    <path id="Path_2986" data-name="Path 2986" d="M415.353,498.474H395.931a11.9,11.9,0,0,1-1.58-.07.656.656,0,0,1-.527-.7.717.717,0,0,1,.527-.7,7.944,7.944,0,0,1,1.58-.07h39.23c.457,0,.913,0,1.37.035a.7.7,0,0,1,.7.7v.105a.735.735,0,0,1-.7.738H436.5c-.527.035-1.054.035-1.58.035C428.418,498.474,421.85,498.474,415.353,498.474Zm-4.917,11.379H395.509c-.667,0-1.686.281-1.686-.773,0-1.019.983-.773,1.651-.773h29.783c.667,0,1.686-.281,1.686.773,0,1.018-.983.773-1.651.773-4.917.035-9.869,0-14.856,0Zm-5.514,12.573H395.3c-.632,0-1.475.14-1.475-.773s.878-.773,1.475-.773H414.51c.632,0,1.475-.14,1.475.773s-.878.773-1.475.773Z" transform="translate(-335.239 -339.187)" fill="#fff"/>
    <path id="Path_2987" data-name="Path 2987" d="M340.285,118.9a.975.975,0,0,1-.983-.948V110.5a1.031,1.031,0,0,1,1.018-.948.992.992,0,0,1,.948.948v7.446A.975.975,0,0,1,340.285,118.9Z" transform="translate(-288.831 -9.447)" fill="#ededed"/>
    <path id="Path_2988" data-name="Path 2988" d="M325.11,135.828h-6.287a.984.984,0,0,1-.07-1.967h6.357a.984.984,0,0,1,.07,1.967Zm59.109,29.467h-2a.151.151,0,0,1-.14-.14v-.035a.151.151,0,0,1,.14-.14h2a.151.151,0,0,1,.14.14v.035C384.394,165.224,384.324,165.295,384.219,165.295Z" transform="translate(-270.53 -30.136)" fill="#ddd"/>
    <path id="Path_2989" data-name="Path 2989" d="M757.388,191.388h-.035a.151.151,0,0,1-.141-.141v-2.388a.151.151,0,0,1,.141-.141h.035a.151.151,0,0,1,.141.141v2.388C757.564,191.317,757.493,191.388,757.388,191.388Zm1.054-21.564a.72.72,0,0,1-.738-.738v-5.2a.742.742,0,0,1,.738-.738.766.766,0,0,1,.738.738v5.128a.756.756,0,0,1-.738.808Z" transform="translate(-644.577 -55.071)" fill="#ddd"/>
    <path id="Path_2990" data-name="Path 2990" d="M749.183,182.1H744.02a.742.742,0,0,1-.738-.738.766.766,0,0,1,.738-.738h5.128a.742.742,0,0,1,.738.738A.712.712,0,0,1,749.183,182.1Z" transform="translate(-632.72 -69.944)" fill="#ddd"/>
    <path id="Path_2991" data-name="Path 2991" d="M654.921,632.625a.668.668,0,0,1-.457-.176,7.707,7.707,0,0,1-.211-10.888.646.646,0,0,1,.913.913,6.466,6.466,0,0,0,.14,9.1.649.649,0,0,1,.035.878l-.035.035A.438.438,0,0,1,654.921,632.625Z" transform="translate(-555.105 -445.136)" fill="#ccc"/>
    <path id="Path_2992" data-name="Path 2992" d="M666.185,619.643l-6.919-6.919a1.294,1.294,0,0,0-1.229-.316l-2.88-2.88a10.252,10.252,0,1,0-.913.913l2.95,2.95a1.234,1.234,0,0,0,.316,1.229l6.919,6.919a1.23,1.23,0,0,0,1.756.035l.035-.035a1.439,1.439,0,0,0-.035-1.9Zm-29.15-17.982a9.974,9.974,0,1,1,9.974,9.974A9.968,9.968,0,0,1,637.034,601.661Z" transform="translate(-542.275 -419.862)" fill="#ccc"/>
  </g>
</svg>
