<svg width="25" height="24" viewBox="0 0 25 24" fill="none" xmlns="http://www.w3.org/2000/svg">
<g id="discount-star-01">
<path id="Icon" d="M8.90002 15.6L16.1 8.40002M9.45392 8.94937L9.43978 8.93507M15.5644 15.1227L15.5503 15.1084M8.42288 4.38735L7.40497 4.44934C6.08354 4.52982 5.02982 5.58354 4.94934 6.90498L4.88735 7.92288C4.85179 8.50679 4.62182 9.06199 4.23408 9.50002L3.55814 10.2636C2.68065 11.2549 2.68065 12.7451 3.55814 13.7364L4.23408 14.5C4.62182 14.9381 4.85179 15.4933 4.88735 16.0772L4.94934 17.0951C5.02982 18.4165 6.08354 19.4702 7.40498 19.5507L8.42288 19.6127C9.00679 19.6483 9.56199 19.8782 10 20.266L10.7636 20.9419C11.7549 21.8194 13.2451 21.8194 14.2364 20.9419L15 20.266C15.4381 19.8782 15.9933 19.6483 16.5772 19.6127L17.5951 19.5507C18.9165 19.4702 19.9702 18.4165 20.0507 17.0951L20.1127 16.0772C20.1483 15.4933 20.3782 14.9381 20.766 14.5L21.4419 13.7364C22.3194 12.7451 22.3194 11.2549 21.4419 10.2636L20.766 9.50002C20.3782 9.06199 20.1483 8.50679 20.1127 7.92288L20.0507 6.90498C19.9702 5.58354 18.9165 4.52982 17.5951 4.44934L16.5772 4.38735C15.9933 4.35179 15.4381 4.12182 15 3.73408L14.2364 3.05814C13.2451 2.18065 11.7549 2.18065 10.7636 3.05814L10 3.73408C9.56199 4.12182 9.00679 4.35179 8.42288 4.38735Z" stroke="black" stroke-width="2" stroke-linecap="round"/>
</g>
</svg>
