<svg width="20" height="20" viewBox="0 0 20 20" fill="none" xmlns="http://www.w3.org/2000/svg">
<g id="Outline/Status/Eye-closed">
<g id="Icon">
<path fill-rule="evenodd" clip-rule="evenodd" d="M17.1086 3.77532C17.3527 3.53124 17.3527 3.13551 17.1086 2.89143C16.8645 2.64735 16.4688 2.64735 16.2247 2.89143L2.89139 16.2248C2.64731 16.4688 2.64731 16.8646 2.89139 17.1087C3.13547 17.3527 3.5312 17.3527 3.77528 17.1087L6.14769 14.7362C7.28628 15.2722 8.59766 15.625 10 15.625C12.2367 15.625 14.242 14.7275 15.6838 13.6208C16.4061 13.0665 17.0027 12.448 17.4241 11.8408C17.8339 11.2503 18.125 10.6023 18.125 10C18.125 9.39779 17.8339 8.7498 17.4241 8.15933C17.0027 7.55208 16.4061 6.93361 15.6838 6.37923C15.4654 6.21158 15.234 6.04873 14.9909 5.89306L17.1086 3.77532ZM14.0829 6.80098L12.6073 8.27667C12.9345 8.77069 13.125 9.36311 13.125 10C13.125 11.7259 11.7259 13.125 10 13.125C9.36307 13.125 8.77065 12.9345 8.27663 12.6073L7.09603 13.7879C7.98397 14.1496 8.96843 14.375 10 14.375C11.9055 14.375 13.6502 13.6059 14.9228 12.6292C15.5577 12.1419 16.0595 11.6146 16.3971 11.1281C16.7464 10.6248 16.875 10.2311 16.875 10C16.875 9.76896 16.7464 9.37528 16.3971 8.872C16.0595 8.3855 15.5577 7.85814 14.9228 7.37085C14.6618 7.17055 14.381 6.97898 14.0829 6.80098ZM9.19162 11.6923C9.43639 11.8094 9.71053 11.875 10 11.875C11.0355 11.875 11.875 11.0356 11.875 10C11.875 9.71057 11.8094 9.43643 11.6923 9.19166L9.19162 11.6923Z" fill="black"/>
<path d="M10 4.37504C10.8363 4.37504 11.6402 4.50052 12.3945 4.71549C12.5733 4.76646 12.6265 4.9897 12.495 5.12117L11.8722 5.74398C11.8103 5.80583 11.7207 5.83056 11.6354 5.8112C11.1096 5.69189 10.5618 5.62504 10 5.62504C8.09454 5.62504 6.34982 6.39414 5.07723 7.37085C4.44231 7.85814 3.94048 8.3855 3.60285 8.872C3.25359 9.37528 3.125 9.76896 3.125 10C3.125 10.2311 3.25359 10.6248 3.60285 11.1281C3.89089 11.5431 4.29845 11.9879 4.80619 12.4122C4.9215 12.5085 4.93254 12.6836 4.82629 12.7899L4.29533 13.3208C4.20502 13.4111 4.06091 13.4191 3.96337 13.3367C3.39857 12.8592 2.92662 12.3461 2.57592 11.8408C2.16614 11.2503 1.875 10.6023 1.875 10C1.875 9.39779 2.16614 8.7498 2.57592 8.15933C2.99734 7.55208 3.59385 6.93361 4.31617 6.37923C5.75804 5.27261 7.76332 4.37504 10 4.37504Z" fill="black"/>
<path d="M10 6.87504C10.0729 6.87504 10.1451 6.87753 10.2168 6.88244C10.414 6.89596 10.4856 7.13058 10.3458 7.27038L9.38949 8.22668C8.84506 8.41407 8.41403 8.8451 8.22664 9.38953L7.27034 10.3458C7.13054 10.4856 6.89591 10.4141 6.8824 10.2168C6.87749 10.1452 6.875 10.0729 6.875 10C6.875 8.27415 8.27411 6.87504 10 6.87504Z" fill="black"/>
</g>
</g>
</svg>
