<svg width="16" height="16" viewBox="0 0 16 16" fill="none" xmlns="http://www.w3.org/2000/svg">
<g id="filter-1">
<g id="filter-1_2">
<path id="Vector" d="M4.66667 2V4M4.66667 14V8" stroke="#7E1E80" stroke-width="1.4" stroke-linecap="round"/>
<path id="Vector_2" d="M6.66667 6C6.66667 4.89543 5.77124 4 4.66667 4C3.5621 4 2.66667 4.89543 2.66667 6C2.66667 7.10457 3.5621 8 4.66667 8C5.77124 8 6.66667 7.10457 6.66667 6Z" stroke="#7E1E80" stroke-width="1.4"/>
<path id="Vector_3" d="M11.3333 2L11.3333 8M11.3333 14V12" stroke="#7E1E80" stroke-width="1.4" stroke-linecap="round"/>
<path id="Vector_4" d="M13.3333 10C13.3333 8.89543 12.4379 8 11.3333 8C10.2288 8 9.33334 8.89543 9.33334 10C9.33334 11.1046 10.2288 12 11.3333 12C12.4379 12 13.3333 11.1046 13.3333 10Z" stroke="#7E1E80" stroke-width="1.4"/>
</g>
</g>
</svg>
