<svg width="18" height="19" viewBox="0 0 18 19" fill="none" xmlns="http://www.w3.org/2000/svg">
<g id="Frame 12174">
<path id="Vector" d="M8.34918 4.92157L9 6.05792L9.65082 4.92157C10.3171 3.7583 11.4679 3.04883 12.75 3.04883C14.7384 3.04883 16.5 4.88676 16.5 7.29883C16.5 8.34579 16.0653 9.45106 15.335 10.5576C14.6083 11.6586 13.6257 12.7051 12.6205 13.6189C11.6183 14.53 10.6127 15.2921 9.85607 15.8271C9.50929 16.0723 9.21619 16.2688 9.00151 16.4091C8.78663 16.2677 8.49307 16.0695 8.14565 15.8224C7.38874 15.284 6.38285 14.5179 5.38027 13.6039C4.3747 12.6872 3.39168 11.6392 2.6647 10.5395C1.93379 9.43392 1.5 8.33423 1.5 7.29883C1.5 4.88676 3.26159 3.04883 5.25 3.04883C6.53213 3.04883 7.68295 3.7583 8.34918 4.92157Z" fill="#FB2121" stroke="#FB2121" stroke-width="1.5"/>
</g>
</svg>
