<svg width="18" height="18" viewBox="0 0 18 18" fill="none" xmlns="http://www.w3.org/2000/svg">
<g id="Frame 12174">
<path id="Vector" d="M8.34918 4.12274L9 5.25909L9.65082 4.12274C10.3171 2.95947 11.4679 2.25 12.75 2.25C14.7384 2.25 16.5 4.08793 16.5 6.5C16.5 7.54696 16.0653 8.65224 15.335 9.75874C14.6083 10.8598 13.6257 11.9062 12.6205 12.82C11.6183 13.7312 10.6127 14.4932 9.85607 15.0282C9.50929 15.2734 9.21619 15.47 9.00151 15.6102C8.78663 15.4688 8.49307 15.2707 8.14565 15.0236C7.38874 14.4852 6.38285 13.7191 5.38027 12.8051C4.3747 11.8884 3.39168 10.8403 2.6647 9.74068C1.93379 8.63509 1.5 7.5354 1.5 6.5C1.5 4.08793 3.26159 2.25 5.25 2.25C6.53213 2.25 7.68295 2.95947 8.34918 4.12274Z" stroke="#606060" stroke-width="1.5"/>
</g>
</svg>
