<svg width="20" height="16" viewBox="0 0 20 16" fill="none" xmlns="http://www.w3.org/2000/svg">
<g id="ic:outline-verified">
<path id="Vector" d="M6.0281 13.8187L3.96721 13.3704C3.77986 13.333 3.62998 13.2364 3.51756 13.0805C3.40515 12.9251 3.36144 12.754 3.38642 12.5672L3.59251 10.4564L2.18735 8.84995C2.06245 8.71296 2 8.55108 2 8.36428C2 8.17749 2.06245 8.0156 2.18735 7.87861L3.59251 6.27218L3.38642 4.16139C3.36144 3.9746 3.40515 3.80349 3.51756 3.64808C3.62998 3.49217 3.77986 3.39553 3.96721 3.35817L6.0281 2.90987L7.11475 1.07928C7.21468 0.917386 7.35207 0.811536 7.52693 0.761724C7.7018 0.711912 7.87666 0.718138 8.05152 0.780403L10 1.6023L11.9485 0.780403C12.1233 0.718138 12.2982 0.711912 12.4731 0.761724C12.6479 0.811536 12.7853 0.917386 12.8852 1.07928L13.9719 2.90987L16.0328 3.35817C16.2201 3.39553 16.37 3.49217 16.4824 3.64808C16.5948 3.80349 16.6386 3.9746 16.6136 4.16139L16.4075 6.27218L17.8126 7.87861C17.9375 8.0156 18 8.17749 18 8.36428C18 8.55108 17.9375 8.71296 17.8126 8.84995L16.4075 10.4564L16.6136 12.5672C16.6386 12.754 16.5948 12.9251 16.4824 13.0805C16.37 13.2364 16.2201 13.333 16.0328 13.3704L13.9719 13.8187L12.8852 15.6493C12.7853 15.8112 12.6479 15.917 12.4731 15.9668C12.2982 16.0166 12.1233 16.0104 11.9485 15.9482L10 15.1263L8.05152 15.9482C7.87666 16.0104 7.7018 16.0166 7.52693 15.9668C7.35207 15.917 7.21468 15.8112 7.11475 15.6493L6.0281 13.8187ZM8.68852 10.4937C8.82592 10.6307 9.00078 10.6992 9.21311 10.6992C9.42545 10.6992 9.60031 10.6307 9.7377 10.4937L12.9227 7.31823C13.0726 7.16879 13.1475 6.99121 13.1475 6.78549C13.1475 6.58026 13.0726 6.40293 12.9227 6.2535C12.7728 6.10406 12.595 6.02934 12.3891 6.02934C12.1828 6.02934 12.0047 6.10406 11.8548 6.2535L9.21311 8.88731L8.12646 7.82257C7.97658 7.68559 7.79872 7.62009 7.59288 7.62607C7.38654 7.63254 7.21468 7.70427 7.07728 7.84125C6.93989 7.97824 6.87119 8.15258 6.87119 8.36428C6.87119 8.57598 6.93989 8.75032 7.07728 8.88731L8.68852 10.4937Z" fill="#91C23D"/>
</g>
</svg>
