<svg width="17" height="17" viewBox="0 0 17 17" fill="none" xmlns="http://www.w3.org/2000/svg">
<g id="image">
<path id="Icon" d="M6.47795 9.08827L6.02544 8.55419L6.02543 8.5542L6.47795 9.08827ZM6.51315 9.05455L6.01441 8.56337L6.01386 8.56393L6.51315 9.05455ZM5.03201 10.3134L4.57949 9.77934L4.57949 9.77935L5.03201 10.3134ZM4.9528 10.3968L5.52737 10.7967L5.52737 10.7966L4.9528 10.3968ZM12.6284 9.13946L12.1436 9.64443L12.6284 9.13946ZM11.3943 7.95475L10.9095 8.45972L10.9095 8.45972L11.3943 7.95475ZM10.936 7.95153L10.4584 7.43978L10.4566 7.44145L10.936 7.95153ZM8.6502 10.0999L9.12782 10.6116L9.12959 10.6099L8.6502 10.0999ZM8.18486 10.0897L7.68369 10.5784L7.68469 10.5794L8.18486 10.0897ZM8.17886 10.0835L7.67721 10.5717L7.67768 10.5722L8.17886 10.0835ZM8.1462 10.0518L8.6045 9.52272L8.6045 9.52271L8.1462 10.0518ZM7.03265 9.08731L7.49095 8.5582L7.49095 8.5582L7.03265 9.08731ZM6.99985 9.05546L7.50167 8.56742L7.5012 8.56694L6.99985 9.05546ZM6.99398 9.04943L7.49533 8.56091L7.49439 8.55995L6.99398 9.04943ZM6.51948 9.04813L6.02173 8.55594L6.02074 8.55695L6.51948 9.04813ZM11.713 4.89984V4.19984C11.3264 4.19984 11.013 4.51324 11.013 4.89984H11.713ZM11.9418 4.89984H12.6418C12.6418 4.51324 12.3284 4.19984 11.9418 4.19984V4.89984ZM11.9418 5.09359V5.79359C12.3284 5.79359 12.6418 5.48019 12.6418 5.09359H11.9418ZM11.713 5.09359H11.013C11.013 5.48019 11.3264 5.79359 11.713 5.79359V5.09359ZM1.73335 4.49998V12.5H3.13335V4.49998H1.73335ZM4.83335 15.6H12.8334V14.2H4.83335V15.6ZM15.9333 12.5V4.49998H14.5333V12.5H15.9333ZM12.8334 1.39998H4.83335V2.79998H12.8334V1.39998ZM15.9333 4.49998C15.9333 2.78789 14.5454 1.39998 12.8334 1.39998V2.79998C13.7722 2.79998 14.5333 3.56109 14.5333 4.49998H15.9333ZM12.8334 15.6C14.5454 15.6 15.9333 14.2121 15.9333 12.5H14.5333C14.5333 13.4389 13.7722 14.2 12.8334 14.2V15.6ZM1.73335 12.5C1.73335 14.2121 3.12127 15.6 4.83335 15.6V14.2C3.89447 14.2 3.13335 13.4389 3.13335 12.5H1.73335ZM3.13335 4.49998C3.13335 3.56109 3.89447 2.79998 4.83335 2.79998V1.39998C3.12127 1.39998 1.73335 2.78789 1.73335 4.49998H3.13335ZM6.93045 9.62235C6.9713 9.58774 7.00482 9.55293 7.01244 9.54518L6.01386 8.56393C6.01079 8.56706 6.00933 8.56854 6.0081 8.56978C6.00703 8.57086 6.00712 8.57075 6.00794 8.56996C6.00941 8.56852 6.01571 8.56244 6.02544 8.55419L6.93045 9.62235ZM5.48453 10.8475L6.93046 9.62234L6.02543 8.5542L4.57949 9.77934L5.48453 10.8475ZM5.52737 10.7966C5.51257 10.8179 5.49944 10.8324 5.49197 10.8401C5.48473 10.8476 5.48102 10.8504 5.48453 10.8475L4.57949 9.77935C4.53003 9.82126 4.45021 9.89354 4.37823 9.99697L5.52737 10.7966ZM5.53335 10.7776C5.53335 10.7844 5.53125 10.7911 5.52737 10.7967L4.37824 9.99697C4.21935 10.2253 4.13335 10.4976 4.13335 10.7776H5.53335ZM5.53335 12.1666V10.7776H4.13335V12.1666H5.53335ZM5.16668 11.8C5.36919 11.8 5.53335 11.9641 5.53335 12.1666H4.13335C4.13335 12.7373 4.59599 13.2 5.16668 13.2V11.8ZM12.5 11.8H5.16668V13.2H12.5V11.8ZM12.1333 12.1666C12.1333 11.9641 12.2975 11.8 12.5 11.8V13.2C13.0707 13.2 13.5333 12.7373 13.5333 12.1666H12.1333ZM12.1333 9.62038V12.1666H13.5333V9.62038H12.1333ZM12.1436 9.64443C12.1371 9.63814 12.1333 9.62946 12.1333 9.62038H13.5333C13.5333 9.24825 13.3816 8.8922 13.1131 8.63449L12.1436 9.64443ZM10.9095 8.45972L12.1436 9.64443L13.1131 8.63449L11.8791 7.44978L10.9095 8.45972ZM11.4136 8.46326C11.2713 8.59611 11.05 8.59455 10.9095 8.45972L11.8791 7.44978C11.4833 7.0698 10.8595 7.06542 10.4584 7.43979L11.4136 8.46326ZM9.12959 10.6099L11.4154 8.4616L10.4566 7.44145L8.1708 9.58978L9.12959 10.6099ZM7.68469 10.5794C8.07362 10.9766 8.71433 10.9975 9.12782 10.6116L8.17257 9.58812C8.31948 9.451 8.54665 9.45863 8.68504 9.59998L7.68469 10.5794ZM7.67768 10.5722L7.68369 10.5784L8.68604 9.601L8.68003 9.59484L7.67768 10.5722ZM7.68789 10.5809C7.67888 10.5731 7.67304 10.5674 7.67169 10.5661C7.67093 10.5653 7.67085 10.5652 7.67185 10.5663C7.67299 10.5674 7.67435 10.5688 7.67721 10.5717L8.68051 9.59533C8.67345 9.58807 8.64228 9.55544 8.6045 9.52272L7.68789 10.5809ZM6.57435 9.61643L7.6879 10.5809L8.6045 9.52271L7.49095 8.5582L6.57435 9.61643ZM6.49803 9.54349C6.50515 9.55081 6.53641 9.58357 6.57435 9.61643L7.49095 8.5582C7.49998 8.56602 7.50584 8.57176 7.50721 8.57311C7.50797 8.57386 7.50805 8.57396 7.50705 8.57294C7.5059 8.57177 7.50455 8.57038 7.50167 8.56742L6.49803 9.54349ZM6.49264 9.53795L6.4985 9.54398L7.5012 8.56694L7.49533 8.56092L6.49264 9.53795ZM7.01722 9.54032C6.87266 9.68651 6.63754 9.68609 6.49358 9.53892L7.49439 8.55995C7.09095 8.14751 6.42689 8.14622 6.02173 8.55594L7.01722 9.54032ZM7.01189 9.54574L7.01821 9.53932L6.02074 8.55695L6.01441 8.56337L7.01189 9.54574ZM11.713 5.59984H11.9418V4.19984H11.713V5.59984ZM11.2418 4.89984V5.09359H12.6418V4.89984H11.2418ZM11.9418 4.39359H11.713V5.79359H11.9418V4.39359ZM12.413 5.09359V4.89984H11.013V5.09359H12.413Z" fill="#7E1E80"/>
</g>
</svg>
