<svg width="25" height="24" viewBox="0 0 25 24" fill="none" xmlns="http://www.w3.org/2000/svg">
<g id="Outline/Files/Invoice">
<g id="Icon">
<path d="M14 9.75002C14 9.3358 13.6642 9.00002 13.25 9.00002H7.25C6.83579 9.00002 6.5 9.3358 6.5 9.75002C6.5 10.1642 6.83579 10.5 7.25 10.5H13.25C13.6642 10.5 14 10.1642 14 9.75002Z" fill="black"/>
<path d="M13 12.75C13 12.3358 12.6642 12 12.25 12H7.25C6.83579 12 6.5 12.3358 6.5 12.75C6.5 13.1642 6.83579 13.5 7.25 13.5H12.25C12.6642 13.5 13 13.1642 13 12.75Z" fill="black"/>
<path d="M13.25 15C13.6642 15 14 15.3358 14 15.75C14 16.1642 13.6642 16.5 13.25 16.5H7.25C6.83579 16.5 6.5 16.1642 6.5 15.75C6.5 15.3358 6.83579 15 7.25 15H13.25Z" fill="black"/>
<path fill-rule="evenodd" clip-rule="evenodd" d="M6.5 21.75H19.5C21.0188 21.75 22.25 20.5188 22.25 19V13.5C22.25 13.0858 21.9142 12.75 21.5 12.75H18.25V4.94321C18.25 3.51981 16.6411 2.69184 15.4828 3.51918L15.3078 3.64421C14.5273 4.2017 13.4701 4.19983 12.6859 3.63972C11.3821 2.70839 9.61794 2.70839 8.31407 3.63972C7.52992 4.19983 6.4727 4.2017 5.69221 3.64421L5.51717 3.51918C4.3589 2.69184 2.75 3.51981 2.75 4.94321V18C2.75 20.0711 4.42893 21.75 6.5 21.75ZM9.18593 4.86032C9.96825 4.30152 11.0318 4.30152 11.8141 4.86032C13.1161 5.79035 14.8739 5.79745 16.1796 4.86481L16.3547 4.73978C16.5202 4.62159 16.75 4.73987 16.75 4.94321V19C16.75 19.4501 16.8581 19.875 17.0499 20.25H6.5C5.25736 20.25 4.25 19.2427 4.25 18V4.94321C4.25 4.73987 4.47984 4.62159 4.64531 4.73978L4.82036 4.86481C6.12605 5.79745 7.8839 5.79034 9.18593 4.86032ZM18.25 19V14.25H20.75V19C20.75 19.6904 20.1904 20.25 19.5 20.25C18.8096 20.25 18.25 19.6904 18.25 19Z" fill="black"/>
</g>
</g>
</svg>
