<svg width="18" height="19" viewBox="0 0 18 19" fill="none" xmlns="http://www.w3.org/2000/svg">
<g id="Group">
<path id="Vector" fill-rule="evenodd" clip-rule="evenodd" d="M17.3809 9.50009V3.21438C17.3809 2.65869 17.1602 2.12575 16.7672 1.73282C16.3743 1.33989 15.8414 1.11914 15.2857 1.11914H8.99996C8.44427 1.11914 7.91134 1.33989 7.51841 1.73282C7.12547 2.12575 6.90472 2.65869 6.90472 3.21438V9.50009C6.90472 10.0558 7.12547 10.5887 7.51841 10.9817C7.91134 11.3746 8.44427 11.5953 8.99996 11.5953H15.2857C15.8414 11.5953 16.3743 11.3746 16.7672 10.9817C17.1602 10.5887 17.3809 10.0558 17.3809 9.50009Z" stroke="black" stroke-width="1.2" stroke-linecap="round" stroke-linejoin="round"/>
<path id="Vector_2" d="M4.80949 7.4082H2.71426C2.15857 7.4082 1.62563 7.62895 1.2327 8.02188C0.839766 8.41482 0.619019 8.94775 0.619019 9.50344V15.7892C0.619019 16.3448 0.839766 16.8778 1.2327 17.2707C1.62563 17.6636 2.15857 17.8844 2.71426 17.8844H2.7174L9.00311 17.8739C9.55826 17.8731 10.0904 17.652 10.4826 17.2591C10.8749 16.8663 11.0952 16.3338 11.0952 15.7787V13.6908M5.85711 11.5987H2.71426" stroke="black" stroke-width="1.2" stroke-linecap="round" stroke-linejoin="round"/>
<path id="Vector_3" d="M7.42857 13.167L6.38095 14.2146C6.03104 14.5635 5.15943 15.0873 3.7619 15.786" stroke="black" stroke-width="1.2" stroke-linecap="round" stroke-linejoin="round"/>
<path id="Vector_4" d="M3.7619 11.5989C4.11181 12.8205 4.63562 13.6942 5.33333 14.2169C6.03104 14.7397 6.90476 15.2625 7.95238 15.7863M9 9.50056L12.1429 3.21484L15.2857 9.50056M14.2381 7.40532H10.0476" stroke="black" stroke-width="1.2" stroke-linecap="round" stroke-linejoin="round"/>
</g>
</svg>
