<svg width="22" height="22" viewBox="0 0 22 22" fill="none" xmlns="http://www.w3.org/2000/svg">
<g id="logout-04">
<path id="Icon" d="M13.4265 7.1498V5.2248C13.4265 4.71426 13.222 4.22463 12.8579 3.86362C12.4939 3.50262 12.0001 3.2998 11.4853 3.2998H4.69118C4.17634 3.2998 3.6826 3.50262 3.31856 3.86362C2.95452 4.22463 2.75 4.71426 2.75 5.2248V16.7748C2.75 17.2853 2.95452 17.775 3.31856 18.136C3.6826 18.497 4.17634 18.6998 4.69118 18.6998H11.4853C12.0001 18.6998 12.4939 18.497 12.8579 18.136C13.222 17.775 13.4265 17.2853 13.4265 16.7748V14.8498M7.60294 10.9998H19.25M19.25 10.9998L16.3382 8.1123M19.25 10.9998L16.3382 13.8873" stroke="#FF0000" stroke-width="2" stroke-linecap="round" stroke-linejoin="round"/>
</g>
</svg>
