<svg width="18" height="18" viewBox="0 0 18 18" fill="none" xmlns="http://www.w3.org/2000/svg">
<g id="Device / mobile">
<path id="Vector" d="M9.5325 12.2122L9.42 12.1224C9.37819 12.094 9.33279 12.0714 9.285 12.055L9.15 11.9951C9.02837 11.9697 8.90232 11.9749 8.78319 12.0101C8.66406 12.0454 8.55558 12.1097 8.4675 12.1972C8.40125 12.27 8.34798 12.3536 8.31 12.4443C8.25324 12.5808 8.23817 12.7309 8.26669 12.8759C8.29521 13.0208 8.36604 13.1541 8.47027 13.259C8.5745 13.3638 8.70747 13.4356 8.85244 13.4652C8.99742 13.4947 9.14792 13.4808 9.285 13.4252C9.37462 13.3818 9.45789 13.3264 9.5325 13.2605C9.63657 13.1552 9.70707 13.0215 9.7351 12.8762C9.76313 12.731 9.74743 12.5807 9.69 12.4443C9.65261 12.3577 9.59917 12.279 9.5325 12.2122ZM12 1.51221H6C5.40326 1.51221 4.83097 1.74887 4.40901 2.17014C3.98705 2.59141 3.75 3.16277 3.75 3.75853V14.2414C3.75 14.8371 3.98705 15.4085 4.40901 15.8298C4.83097 16.251 5.40326 16.4877 6 16.4877H12C12.5967 16.4877 13.169 16.251 13.591 15.8298C14.0129 15.4085 14.25 14.8371 14.25 14.2414V3.75853C14.25 3.16277 14.0129 2.59141 13.591 2.17014C13.169 1.74887 12.5967 1.51221 12 1.51221ZM12.75 14.2414C12.75 14.44 12.671 14.6304 12.5303 14.7709C12.3897 14.9113 12.1989 14.9902 12 14.9902H6C5.80109 14.9902 5.61032 14.9113 5.46967 14.7709C5.32902 14.6304 5.25 14.44 5.25 14.2414V3.75853C5.25 3.55995 5.32902 3.36949 5.46967 3.22907C5.61032 3.08865 5.80109 3.00976 6 3.00976H12C12.1989 3.00976 12.3897 3.08865 12.5303 3.22907C12.671 3.36949 12.75 3.55995 12.75 3.75853V14.2414Z" fill="#5B5B5B"/>
</g>
</svg>
