<svg width="20" height="20" viewBox="0 0 20 20" fill="none" xmlns="http://www.w3.org/2000/svg">
<g id="Outline/Status/Pin">
<path id="Icon" fill-rule="evenodd" clip-rule="evenodd" d="M13.988 3.10415C13.2585 2.37461 12.0228 2.61258 11.6164 3.56088L10.2892 6.65757C9.03999 6.41259 7.69409 6.77348 6.725 7.74257L5.29992 9.16764C5.05584 9.41172 5.05584 9.80745 5.29992 10.0515L7.37934 12.1309L2.89131 16.619C2.64723 16.8631 2.64723 17.2588 2.89131 17.5029C3.13539 17.7469 3.53112 17.7469 3.77519 17.5029L8.26323 13.0148L10.3427 15.0943C10.4599 15.2115 10.6189 15.2774 10.7847 15.2774C10.9504 15.2774 11.1094 15.2115 11.2266 15.0943L12.6517 13.6692C13.6208 12.7002 13.9817 11.3542 13.7367 10.105L16.8334 8.77786C17.7817 8.37145 18.0196 7.13578 17.2901 6.40624L13.988 3.10415ZM12.7653 4.05328C12.8234 3.9178 12.9999 3.88381 13.1041 3.98803L16.4062 7.29013C16.5104 7.39435 16.4764 7.57087 16.341 7.62893L12.7448 9.17012C12.4412 9.30025 12.2913 9.64419 12.4026 9.9552C12.7451 10.9121 12.5323 12.0209 11.7678 12.7854L10.7847 13.7685L6.62574 9.60959L7.60888 8.62645C8.37339 7.86194 9.48212 7.64913 10.439 7.99163C10.75 8.10295 11.094 7.95302 11.2241 7.64939L12.7653 4.05328Z" fill="black"/>
</g>
</svg>
