<svg width="24" height="24" viewBox="0 0 24 24" fill="none" xmlns="http://www.w3.org/2000/svg">
<g id="Property 1=Clicked">
<g id="Vector">
<path fill-rule="evenodd" clip-rule="evenodd" d="M12.7676 1.86254C13.203 1.57624 13.7799 1.67708 14.0977 2.095L16.8774 5.751H18.1484C19.1866 5.751 20.0283 6.61204 20.0283 7.67417V9.80922C20.5241 9.86986 20.9083 10.3015 20.9083 10.8249V15.776C20.9083 16.2994 20.5241 16.7311 20.0283 16.7917V19.3768C20.0283 20.439 19.1866 21.3 18.1484 21.3H3.18835C2.15005 21.3 1.30835 20.439 1.30835 19.3768V7.67417C1.30835 6.61203 2.15005 5.751 3.18835 5.751H6.85465L12.7676 1.86254ZM7.13368 7.79692C7.14408 7.79709 7.15449 7.79709 7.1649 7.79692H16.3794C16.3858 7.79699 16.3923 7.79699 16.3987 7.79692H18.0283V9.80193H17.0484C15.1595 9.80193 13.6284 11.3683 13.6284 13.3005C13.6284 15.2326 15.1595 16.799 17.0484 16.799H18.0283V19.2541H3.30835V7.79692H7.13368ZM14.3437 5.751H10.5532L13.0802 4.08918L14.3437 5.751ZM17.0484 11.8479C16.2641 11.8479 15.6284 12.4982 15.6284 13.3005C15.6284 14.1027 16.2641 14.7531 17.0484 14.7531H18.9083V11.8479H17.0484Z" fill="#7E1E80"/>
<path d="M3.27772 7.76418H15.5988V19.2495H3.27772V7.76418Z" fill="#7E1E80"/>
<path d="M15.5932 7.78916H18.0271L18.0283 9.80193H17.0484L16.5653 9.83655L16.1453 9.92518L15.8636 10.0175L15.5988 10.1308L15.5932 7.78916Z" fill="#7E1E80"/>
<path d="M15.5988 16.4701L16.0295 16.6411L16.6739 16.7782L17.3485 16.799H18.0283L18.0271 19.2495H15.5988V16.4701Z" fill="#7E1E80"/>
</g>
</g>
</svg>
