<svg width="20" height="21" viewBox="0 0 20 21" fill="none" xmlns="http://www.w3.org/2000/svg">
<g id="repost 1">
<path id="Vector" d="M18.9583 7.16667V13.8333C18.9583 15.5566 17.5566 16.9583 15.8333 16.9583H12.3421L13.7752 18.3914C14.0193 18.6356 14.0193 19.0311 13.7752 19.2752C13.6531 19.3973 13.4932 19.4583 13.3332 19.4583C13.1733 19.4583 13.0134 19.3973 12.8913 19.2752L10.3913 16.7752C10.1472 16.531 10.1472 16.1355 10.3913 15.8914L12.8913 13.3914C13.1355 13.1473 13.531 13.1473 13.7751 13.3914C14.0192 13.6356 14.0192 14.0311 13.7751 14.2752L12.342 15.7083H15.8332C16.8672 15.7083 17.7082 14.8672 17.7082 13.8333V7.16658C17.7082 6.13267 16.8672 5.29158 15.8332 5.29158H13.8834C13.5383 5.29158 13.2584 5.01167 13.2584 4.66658C13.2584 4.3215 13.5383 4.04158 13.8834 4.04158H15.8332C17.5565 4.04158 18.9583 5.44342 18.9583 7.16667ZM7.10857 1.72475C6.86441 1.48058 6.4689 1.48058 6.22482 1.72475C5.98074 1.96892 5.98066 2.36442 6.22482 2.6085L7.6579 4.04158H4.16666C2.44341 4.04158 1.04166 5.44333 1.04166 7.16658V13.8333C1.04166 15.5565 2.44341 16.9583 4.16666 16.9583H6.11649C6.46157 16.9583 6.74149 16.6783 6.74149 16.3333C6.74149 15.9882 6.46157 15.7083 6.11649 15.7083H4.16666C3.13274 15.7083 2.29166 14.8672 2.29166 13.8333V7.16658C2.29166 6.13267 3.13274 5.29158 4.16666 5.29158H7.6579L6.22482 6.72467C5.98066 6.96883 5.98066 7.36434 6.22482 7.60842C6.34691 7.7305 6.50682 7.7915 6.66674 7.7915C6.82666 7.7915 6.98657 7.7305 7.10866 7.60842L9.60865 5.10842C9.85282 4.86425 9.85282 4.46875 9.60865 4.22467L7.10857 1.72475Z" fill="#606060" stroke="#606060" stroke-width="0.3"/>
</g>
</svg>
