<svg width="25" height="24" viewBox="0 0 25 24" fill="none" xmlns="http://www.w3.org/2000/svg">
<g id="search">
<path id="Vector" d="M11.3334 19C12.8121 18.9997 14.2552 18.5873 15.5042 17.8174C15.9344 17.5523 16.4989 17.5806 16.8563 17.9379L19.9194 21.001C20.3098 21.3915 20.9429 21.3915 21.3334 21.001C21.7238 20.6105 21.7238 19.9775 21.3334 19.587L18.2704 16.524C17.913 16.1666 17.8848 15.602 18.15 15.1718C18.9203 13.9226 19.333 12.4791 19.3334 11C19.3334 6.589 15.7444 3 11.3334 3C6.92237 3 3.33337 6.589 3.33337 11C3.33337 15.411 6.92237 19 11.3334 19ZM11.3334 5C14.6424 5 17.3334 7.691 17.3334 11C17.3334 14.309 14.6424 17 11.3334 17C8.02437 17 5.33337 14.309 5.33337 11C5.33337 7.691 8.02437 5 11.3334 5Z" fill="#7E1E80"/>
<circle id="vector" opacity="0.1" cx="11.3334" cy="11" r="6" fill="white"/>
<path id="Vector_2" d="M12.7453 9.58596C12.8823 9.72331 12.9971 9.87658 13.0878 10.0415C13.3541 10.5253 13.7819 11 14.3342 11C14.8858 11 15.3465 10.5465 15.2103 10.0119C15.1633 9.82704 15.1029 9.64541 15.0294 9.46845C14.8279 8.98304 14.5322 8.54239 14.1593 8.17196C12.8847 6.89902 10.8226 6.69776 9.29958 7.56818C8.82044 7.84201 8.82324 8.48877 9.21291 8.87955C9.60291 9.27065 10.2443 9.24148 10.7768 9.09484C11.4573 8.90745 12.23 9.072 12.7453 9.58596Z" fill="#7E1E80"/>
</g>
</svg>
