<svg width="25" height="24" viewBox="0 0 25 24" fill="none" xmlns="http://www.w3.org/2000/svg">
<g id="search">
<path id="Vector" d="M11.3333 19C12.812 18.9997 14.2552 18.5873 15.5042 17.8174C15.9344 17.5523 16.4989 17.5806 16.8562 17.9379L19.9193 21.001C20.3098 21.3915 20.9429 21.3915 21.3333 21.001C21.7238 20.6105 21.7238 19.9775 21.3333 19.587L18.2704 16.524C17.913 16.1666 17.8847 15.602 18.15 15.1718C18.9203 13.9226 19.333 12.4791 19.3333 11C19.3333 6.589 15.7443 3 11.3333 3C6.92234 3 3.33334 6.589 3.33334 11C3.33334 15.411 6.92234 19 11.3333 19ZM11.3333 5C14.6423 5 17.3333 7.691 17.3333 11C17.3333 14.309 14.6423 17 11.3333 17C8.02434 17 5.33334 14.309 5.33334 11C5.33334 7.691 8.02434 5 11.3333 5Z" fill="#7E1E80"/>
<circle id="vector" cx="11.3333" cy="11" r="6" fill="#7E1E80"/>
<path id="Vector_2" d="M12.7454 9.58609C12.8823 9.72343 12.9971 9.87671 13.0878 10.0416C13.3541 10.5254 13.7819 11.0001 14.3342 11.0001C14.8858 11.0001 15.3465 10.5466 15.2104 10.012C15.1633 9.82716 15.1029 9.64553 15.0294 9.46857C14.8279 8.98316 14.5322 8.54251 14.1594 8.17209C12.8847 6.89914 10.8226 6.69788 9.29961 7.5683C8.82047 7.84213 8.82327 8.48889 9.21294 8.87967C9.60294 9.27077 10.2443 9.24161 10.7768 9.09497C11.4573 8.90758 12.23 9.07213 12.7454 9.58609Z" fill="white"/>
</g>
</svg>
