<svg width="18" height="12" viewBox="0 0 18 12" fill="none" xmlns="http://www.w3.org/2000/svg">
<path fill-rule="evenodd" clip-rule="evenodd" d="M12.0227 2.97725C12.2424 3.19692 12.2424 3.55308 12.0227 3.77275L6.77275 9.02275C6.55308 9.24242 6.19692 9.24242 5.97725 9.02275L2.97725 6.02275C2.75758 5.80308 2.75758 5.44692 2.97725 5.22725C3.19692 5.00758 3.55308 5.00758 3.77275 5.22725L6.375 7.8295L11.2273 2.97725C11.4469 2.75758 11.8031 2.75758 12.0227 2.97725Z" fill="#7E1E80"/>
<path fill-rule="evenodd" clip-rule="evenodd" d="M15.0227 2.97725C15.2424 3.19692 15.2424 3.55308 15.0227 3.77275L9.77275 9.02275C9.55308 9.24242 9.19692 9.24242 8.97725 9.02275L5.97725 6.02275C5.75758 5.80308 5.75758 5.44692 5.97725 5.22725C6.19692 5.00758 6.55308 5.00758 6.77275 5.22725L9.375 7.8295L14.2273 2.97725C14.4469 2.75758 14.8031 2.75758 15.0227 2.97725Z" fill="#7E1E80"/>
</svg>
