<svg width="14" height="14" viewBox="0 0 14 14" fill="none" xmlns="http://www.w3.org/2000/svg">
<g id="Solid/Status/Star">
<path id="Icon" d="M7.50452 1.74784C7.27971 1.36042 6.72023 1.36042 6.49543 1.74784L4.91223 4.47627C4.80118 4.66765 4.60923 4.79826 4.39045 4.8313L1.42343 5.27943C0.9251 5.3547 0.750299 5.98389 1.13839 6.30542L3.3487 8.13664C3.5533 8.30615 3.6495 8.57352 3.5998 8.83453L3.02162 11.8709C2.93022 12.3508 3.43409 12.7238 3.86643 12.4961L6.66025 11.0251C6.87289 10.9131 7.12705 10.9131 7.33969 11.0251L10.1335 12.4961C10.5659 12.7238 11.0697 12.3508 10.9783 11.8709L10.4001 8.83453C10.3504 8.57352 10.4467 8.30615 10.6513 8.13664L12.8616 6.30542C13.2496 5.98389 13.0748 5.3547 12.5765 5.27943L9.6095 4.8313C9.39071 4.79826 9.19877 4.66765 9.08772 4.47627L7.50452 1.74784Z" fill="white"/>
</g>
</svg>
