<svg width="22" height="24" viewBox="0 0 22 24" fill="none" xmlns="http://www.w3.org/2000/svg">
<g id="IC/24/terms">
<path id="Vector" d="M13.9792 5H15.6979C16.1538 5 16.5909 5.19754 16.9133 5.54917C17.2356 5.90081 17.4167 6.37772 17.4167 6.875V20C17.4167 20.4973 17.2356 20.9742 16.9133 21.3258C16.5909 21.6775 16.1538 21.875 15.6979 21.875H5.38544C4.9296 21.875 4.49243 21.6775 4.1701 21.3258C3.84777 20.9742 3.66669 20.4973 3.66669 20V6.875C3.66669 6.37772 3.84777 5.90081 4.1701 5.54917C4.49243 5.19754 4.9296 5 5.38544 5H7.10419" stroke="#12121D" stroke-width="1.5" stroke-linecap="round" stroke-linejoin="round"/>
<path id="Vector_2" d="M12.9479 3H8.1354C7.69242 3 7.33331 3.39175 7.33331 3.875V5.625C7.33331 6.10825 7.69242 6.5 8.1354 6.5H12.9479C13.3909 6.5 13.75 6.10825 13.75 5.625V3.875C13.75 3.39175 13.3909 3 12.9479 3Z" stroke="black" stroke-width="1.5" stroke-linecap="round" stroke-linejoin="round"/>
</g>
</svg>
