<svg width="20" height="20" viewBox="0 0 20 20" fill="none" xmlns="http://www.w3.org/2000/svg">
<g id="trash-02">
<path id="Icon" d="M4 5.25H16M8.5 12.75V8.25M11.5 12.75V8.25M13 15.75H7C6.17157 15.75 5.5 15.0784 5.5 14.25V6C5.5 5.58579 5.83579 5.25 6.25 5.25H13.75C14.1642 5.25 14.5 5.58579 14.5 6V14.25C14.5 15.0784 13.8284 15.75 13 15.75ZM8.5 5.25H11.5C11.9142 5.25 12.25 4.91421 12.25 4.5V3.75C12.25 3.33579 11.9142 3 11.5 3H8.5C8.08579 3 7.75 3.33579 7.75 3.75V4.5C7.75 4.91421 8.08579 5.25 8.5 5.25Z" stroke="#FB2121" stroke-width="1.2" stroke-linecap="round" stroke-linejoin="round"/>
</g>
</svg>
