<svg width="17" height="17" viewBox="0 0 17 17" fill="none" xmlns="http://www.w3.org/2000/svg">
<g id="type-03">
<path id="Vector" d="M6.97257 11.3H8.24942M8.24942 11.3H9.58538M8.24942 11.3V5.69998M8.24942 5.69998H6.16666C5.94575 5.69998 5.76666 5.87906 5.76666 6.09998V6.68821M8.24942 5.69998H10.1667C10.3876 5.69998 10.5667 5.87906 10.5667 6.09998V6.85292M3.36666 14.9H12.9667C13.8503 14.9 14.5667 14.1836 14.5667 13.3V3.69998C14.5667 2.81632 13.8503 2.09998 12.9667 2.09998H3.36666C2.48301 2.09998 1.76666 2.81632 1.76666 3.69998V13.3C1.76666 14.1836 2.48301 14.9 3.36666 14.9Z" stroke="#606060" stroke-width="1.4" stroke-linecap="round" stroke-linejoin="round"/>
</g>
</svg>
