<svg width="25" height="24" viewBox="0 0 25 24" fill="none" xmlns="http://www.w3.org/2000/svg">
<g id="User">
<g id="Icon">
<path fill-rule="evenodd" clip-rule="evenodd" d="M7.41247 7.75085C7.41247 5.12703 9.5395 3 12.1633 3C14.7871 3 16.9142 5.12703 16.9142 7.75085C16.9142 10.3747 14.7871 12.5017 12.1633 12.5017C9.5395 12.5017 7.41247 10.3747 7.41247 7.75085ZM12.1633 4.67677C10.4656 4.67677 9.08924 6.05308 9.08924 7.75085C9.08924 9.44862 10.4656 10.8249 12.1633 10.8249C13.8611 10.8249 15.2374 9.44862 15.2374 7.75085C15.2374 6.05308 13.8611 4.67677 12.1633 4.67677Z" fill="black"/>
<path fill-rule="evenodd" clip-rule="evenodd" d="M7.69193 15.8552C6.30285 15.8552 5.17677 16.9813 5.17677 18.3704V19.6987C5.17677 19.719 5.19143 19.7362 5.21139 19.7395C9.81553 20.4912 14.5111 20.4912 19.1152 19.7395C19.1352 19.7362 19.1499 19.719 19.1499 19.6987V18.3704C19.1499 16.9813 18.0238 15.8552 16.6347 15.8552H16.2537C16.2242 15.8552 16.1949 15.8599 16.1669 15.8691L15.1994 16.185C13.2266 16.8292 11.1 16.8292 9.12723 16.185L8.15971 15.8691C8.13171 15.8599 8.10243 15.8552 8.07297 15.8552H7.69193ZM3.5 18.3704C3.5 16.0553 5.37679 14.1785 7.69193 14.1785H8.07297C8.2792 14.1785 8.48414 14.2111 8.68019 14.2751L9.6477 14.591C11.2823 15.1248 13.0443 15.1248 14.6789 14.591L15.6465 14.2751C15.8425 14.2111 16.0474 14.1785 16.2537 14.1785H16.6347C18.9499 14.1785 20.8266 16.0553 20.8266 18.3704V19.6987C20.8266 20.5407 20.2164 21.2586 19.3854 21.3943C14.6024 22.1752 9.72429 22.1752 4.94121 21.3943C4.11021 21.2586 3.5 20.5407 3.5 19.6987V18.3704Z" fill="black"/>
</g>
</g>
</svg>
