<svg width="25" height="24" viewBox="0 0 25 24" fill="none" xmlns="http://www.w3.org/2000/svg">
<g id="Wallet">
<path id="Icon" d="M22.2666 16.5744V17.5744C22.8189 17.5744 23.2666 17.1266 23.2666 16.5744H22.2666ZM22.2666 11.0462H23.2666C23.2666 10.4939 22.8189 10.0462 22.2666 10.0462V11.0462ZM7.50617 5.68821C7.04509 5.99222 6.91775 6.61245 7.22176 7.07354C7.52577 7.53462 8.146 7.66195 8.60708 7.35794L7.50617 5.68821ZM14.9166 2L15.7134 1.39576C15.3952 0.976066 14.8059 0.875199 14.3662 1.16514L14.9166 2ZM17.5498 7.12732C17.8835 7.56738 18.5108 7.65359 18.9509 7.31988C19.3909 6.98617 19.4771 6.3589 19.1434 5.91884L17.5498 7.12732ZM22.2666 15.5744H19.0816V17.5744H22.2666V15.5744ZM19.0816 12.0462H22.2666V10.0462H19.0816V12.0462ZM21.2666 11.0462V16.5744H23.2666V11.0462H21.2666ZM17.3866 13.8103C17.3866 12.812 18.1692 12.0462 19.0816 12.0462V10.0462C17.0172 10.0462 15.3866 11.7554 15.3866 13.8103H17.3866ZM19.0816 15.5744C18.1692 15.5744 17.3866 14.8086 17.3866 13.8103H15.3866C15.3866 15.8651 17.0172 17.5744 19.0816 17.5744V15.5744ZM8.60708 7.35794L15.4671 2.83486L14.3662 1.16514L7.50617 5.68821L8.60708 7.35794ZM14.1198 2.60424L17.5498 7.12732L19.1434 5.91884L15.7134 1.39576L14.1198 2.60424ZM3.64663 7.52308H20.3066V5.52308H3.64663V7.52308ZM20.3066 20.6H3.64663V22.6H20.3066V20.6ZM3.66663 20.5949V7.52821H1.66663V20.5949H3.66663ZM3.64663 20.6C3.64846 20.6 3.65123 20.6002 3.65452 20.6009C3.65775 20.6016 3.66068 20.6026 3.66314 20.6036C3.66555 20.6047 3.66723 20.6057 3.66824 20.6064C3.66924 20.6071 3.66965 20.6075 3.66966 20.6075C3.66967 20.6075 3.66944 20.6073 3.6691 20.6068C3.66878 20.6063 3.66843 20.6056 3.66811 20.6049C3.66768 20.6038 3.66663 20.601 3.66663 20.5949H1.66663C1.66663 21.6783 2.52939 22.6 3.64663 22.6V20.6ZM20.2866 20.5949C20.2866 20.601 20.2856 20.6038 20.2851 20.6049C20.2848 20.6056 20.2845 20.6063 20.2841 20.6068C20.2838 20.6073 20.2836 20.6075 20.2836 20.6075C20.2836 20.6075 20.284 20.6071 20.285 20.6064C20.286 20.6057 20.2877 20.6047 20.2901 20.6036C20.2926 20.6026 20.2955 20.6016 20.2987 20.6009C20.302 20.6002 20.3048 20.6 20.3066 20.6V22.6C21.4239 22.6 22.2866 21.6783 22.2866 20.5949H20.2866ZM20.3066 7.52308C20.3048 7.52308 20.302 7.52287 20.2987 7.52218C20.2955 7.5215 20.2926 7.52053 20.2901 7.51946C20.2877 7.51842 20.286 7.5174 20.285 7.5167C20.284 7.51601 20.2836 7.51558 20.2836 7.51557C20.2836 7.51556 20.2838 7.5158 20.2841 7.51631C20.2845 7.5168 20.2848 7.51743 20.2851 7.51821C20.2856 7.51925 20.2866 7.52206 20.2866 7.52821H22.2866C22.2866 6.44482 21.4239 5.52308 20.3066 5.52308V7.52308ZM3.64663 5.52308C2.52939 5.52308 1.66663 6.44482 1.66663 7.52821H3.66663C3.66663 7.52206 3.66768 7.51925 3.66811 7.51821C3.66843 7.51744 3.66878 7.5168 3.6691 7.51631C3.66944 7.5158 3.66967 7.51556 3.66966 7.51557C3.66965 7.51558 3.66924 7.51601 3.66824 7.5167C3.66723 7.5174 3.66555 7.51842 3.66314 7.51946C3.66068 7.52053 3.65775 7.5215 3.65452 7.52218C3.65123 7.52287 3.64846 7.52308 3.64663 7.52308V5.52308ZM20.2866 17.3282V20.5949H22.2866V17.3282H20.2866ZM20.2866 7.52821V10.1667H22.2866V7.52821H20.2866Z" fill="#7E1E80"/>
</g>
</svg>
